<svg width="851" height="606" viewBox="0 0 851 606" fill="none" xmlns="http://www.w3.org/2000/svg">
<path d="M369.816 129.964C341.147 28.7297 211.955 -3.8823 137.916 71.7759C136.852 72.8617 135.791 73.9671 134.729 75.0903C28.583 187.407 78.7272 464.189 300.251 534.342C521.775 604.494 752.189 476.39 765.134 361.873C778.078 247.356 675.878 211.372 517.275 243.395C427.667 261.485 387.663 192.984 369.816 129.964Z" fill="#3D0E9C" fill-opacity="0.25"/>
<path d="M554.095 147.279C524.456 151.975 516.243 177.537 539.127 195.67C546.691 201.663 557.493 206.643 572.881 209.127C631.503 218.594 662.612 193.346 639.113 160.613C624.611 140.411 583.467 142.625 554.095 147.279Z" fill="#3D0E9C" fill-opacity="0.25"/>
<path d="M81.5109 351.829C63.0845 328.748 36.0981 333.966 30.6989 362.205C28.9139 371.539 29.5945 383.154 34.7203 397.495C54.2474 452.126 91.9111 466.625 110.185 430.871C121.466 408.805 99.7722 374.701 81.5109 351.829Z" fill="#3D0E9C" fill-opacity="0.25"/>
<path d="M786.026 375.18C783.297 389.093 795.098 398.949 808.472 393.586C812.892 391.815 817.352 388.399 821.318 382.391C836.427 359.51 828.776 339.884 807.737 341.899C794.752 343.143 788.732 361.392 786.026 375.18Z" fill="#3D0E9C" fill-opacity="0.25"/>
<path d="M711.098 228.359C725.343 231.253 735.666 219.933 730.387 206.827C728.642 202.495 725.208 198.097 719.108 194.134C695.864 179.039 675.571 186.152 677.283 206.663C678.34 219.321 696.981 225.491 711.098 228.359Z" fill="#3D0E9C" fill-opacity="0.25"/>
<path d="M364.867 79.4708C376.145 88.4212 390.662 82.9978 392.172 68.9954C392.671 64.3685 391.703 58.9254 388.158 52.6734C374.658 28.8582 353.281 26.0849 345.103 45.0606C340.056 56.7735 353.69 70.6009 364.867 79.4708Z" fill="#3D0E9C" fill-opacity="0.25"/>
<path d="M821.343 444.781C843.962 422.648 861.187 397.635 844.052 393.736C826.9 389.833 798.096 433.422 793.076 473.097L788.053 486.195C792.231 457.344 782.075 422.2 767.204 420.752C752.428 419.312 761.372 442.108 773.107 461.603C782.04 476.443 784.395 488.151 784.982 494.201L761.258 556.066C767.737 510.359 751.648 454.905 728.12 452.614C704.676 450.331 718.866 486.501 737.485 517.434C751.557 540.81 755.345 559.298 756.312 568.959L751.582 581.295C753.652 582.429 755.727 583.551 757.809 584.66L786.034 511.057C791.479 507.1 799.747 502.317 811.519 498.44C833.508 491.199 855.61 479.684 843.479 471.346C832.953 464.111 808.204 478.038 791.157 497.694L800.919 472.239C805.32 464.871 811.582 454.333 821.343 444.781Z" fill="#33CC33"/>
<path d="M108.363 156.026C111.297 129.294 109.013 103.458 95.3451 109.829C81.6647 116.208 86.4603 160.596 105.059 189.874L108.939 201.306C95.767 179.739 69.485 161.467 58.6978 168.296C47.9784 175.082 66.6084 185.698 85.2843 192.633C99.5022 197.911 107.565 204.538 111.311 208.294L129.639 262.291C108.679 228.195 67.1643 199.397 50.0955 210.203C33.0872 220.971 62.6458 237.816 92.2813 248.82C114.676 257.135 127.459 267.564 133.458 273.545L137.113 284.311C139.131 283.988 141.145 283.652 143.158 283.304L121.354 219.064C122.82 213.549 125.724 205.999 131.482 197.218C142.24 180.818 150.705 161.489 137.942 162.253C126.865 162.917 117.958 185.257 117.395 207.401L109.855 185.186C108.728 177.925 107.097 167.564 108.363 156.026Z" fill="#33CC33"/>
<path d="M668.661 518.307C668.949 519.822 669.281 521.475 669.67 523.232V523.236C673.743 541.669 683.742 571.841 706.239 577.776C706.239 577.776 693.993 515.623 737.637 499.435C781.282 483.247 776.455 467.834 773.96 440.399C771.465 412.964 761.821 407.733 792.104 382.034C822.387 356.335 816.595 318.057 816.595 318.057C816.595 318.057 787.936 361.762 757.326 362.776C726.716 363.791 721.354 389.227 722.66 408.144C723.964 427.059 697.969 429.199 683.901 440.17C669.834 451.142 667.185 508.759 667.185 508.759C667.185 508.759 667.573 512.527 668.661 518.307Z" fill="#3D0E9C"/>
<path d="M668.662 518.307C668.95 519.822 669.282 521.475 669.671 523.232C672.81 513.984 677.224 506.216 681.357 500.255C691.146 486.135 704.935 474.536 717.335 469.984C737.078 462.743 746.721 443.892 748.588 408.86C749.671 388.527 771.526 376.516 771.75 376.398C772.388 376.054 772.621 375.268 772.267 374.646C771.913 374.021 771.106 373.795 770.467 374.139C769.513 374.652 747.1 386.945 745.941 408.724C744.138 442.59 735.025 460.741 716.401 467.573C703.317 472.372 689.394 484.049 679.159 498.808C675.541 504.026 671.713 510.594 668.662 518.307Z" fill="#0C0021"/>
<path d="M185.573 577.438H216.241C199.67 574.772 158.585 557.603 154.921 523.175C150.281 479.568 134.328 480.113 107.45 475.554C80.5697 470.993 73.1654 478.439 56.0985 444.585C39.0315 410.732 0.955078 406.464 0.955078 406.464C0.955078 406.464 35.6596 443.324 29.0184 471.336C22.3773 499.349 45.3901 510.535 63.8201 514.057C82.2502 517.577 77.8326 541.685 84.8351 557.171C88.0309 564.237 101.113 571.563 114.392 577.438H185.573Z" fill="#0C0021"/>
<path d="M119.146 534.511C120.485 547.571 128.2 563.102 139.781 576.054C140.189 576.509 140.612 576.972 141.045 577.436H144.535C143.537 576.413 142.59 575.402 141.711 574.418C130.632 562.028 122.958 546.64 121.685 534.263C119.664 514.557 104.02 501.124 70.954 490.719C51.7607 484.681 45.6993 461.875 45.6443 461.641C45.4737 460.976 44.7784 460.569 44.0959 460.735C43.4098 460.901 42.9915 461.576 43.1621 462.241C43.4153 463.234 49.6088 486.617 70.1651 493.085C102.129 503.146 117.236 515.921 119.146 534.511Z" fill="#33CC33"/>
<path d="M202.113 496.508C201.464 498.626 200.728 500.933 199.897 503.384L199.895 503.389C191.176 529.076 173.289 572.338 140.257 577.436C140.257 577.436 166.4 488.888 106.694 459.264C46.988 429.64 56.3076 408.375 64.1999 369.611C72.0904 330.847 86.6752 324.827 47.5329 283.634C8.39057 242.441 22.6983 188.702 22.6983 188.702C22.6983 188.702 56.6819 255.338 100.189 261.365C143.697 267.392 147.328 304.483 142.479 331.273C137.63 358.064 174.378 365.003 192.713 382.761C211.048 400.517 205.729 483.108 205.729 483.108C205.729 483.108 204.579 488.422 202.113 496.508Z" fill="#3D0E9C"/>
<path d="M202.114 496.508C201.465 498.626 200.729 500.933 199.898 503.383C196.882 489.72 191.81 477.977 186.856 468.855C175.12 447.247 157.283 428.638 140.313 420.289C113.29 407.005 102.514 378.67 105.379 328.416C107.047 299.247 77.7674 278.841 77.4647 278.643C76.608 278.055 76.3988 276.9 77.0024 276.066C77.6078 275.227 78.7948 275.023 79.6515 275.611C80.9302 276.484 110.962 297.376 109.179 328.62C106.405 377.2 116.535 404.456 142.025 416.993C159.932 425.797 177.951 444.538 190.221 467.125C194.556 475.106 198.983 485.047 202.114 496.508Z" fill="#0C0021"/>
<path d="M225.795 556.614C225.896 563.347 226.021 570.352 226.173 577.437H292.878C293.004 569.681 293.102 562.249 293.175 555.275C293.375 536.376 293.399 520.824 293.382 511.157C293.375 504.3 293.346 500.412 293.346 500.412L225.327 499.71C225.327 499.71 225.327 505.43 225.379 514.786C225.423 525.183 225.542 540.069 225.795 556.614Z" fill="black"/>
<path d="M225.379 514.784C225.423 525.183 225.542 540.069 225.795 556.614C246.75 558.171 269.72 558.186 293.175 555.275C293.377 536.376 293.399 520.824 293.384 511.157L225.379 514.784Z" fill="#0C0021"/>
<path d="M141.731 541.685C141.806 552.269 141.934 564.393 142.151 577.438H208.861C209.026 569.8 209.158 562.254 209.267 555.045C209.498 539.571 209.617 525.64 209.676 515.625C209.727 505.769 209.727 499.71 209.727 499.71L141.678 500.412C141.678 500.412 141.626 507.436 141.641 519.252C141.643 525.501 141.672 533.083 141.731 541.685Z" fill="black"/>
<path d="M141.643 519.252C141.643 525.5 141.672 533.081 141.732 541.685C155.279 545.572 179.528 551.619 209.268 555.044C209.499 539.57 209.619 525.64 209.677 515.625L141.643 519.252Z" fill="#0C0021"/>
<path d="M253.467 151.35C253.467 151.35 264.187 141.302 264.152 131.378C264.115 121.455 257.186 124.387 253.467 115.14C249.748 105.893 238.699 100.254 232.639 101.382C226.58 102.511 213.785 79.5048 196.434 83.5639C179.081 87.623 180.591 109.276 173.117 112.433C165.643 115.59 167.727 128.446 171.668 131.378C175.606 134.311 177.274 146.093 179.49 145.827C181.704 145.561 253.467 151.35 253.467 151.35Z" fill="black"/>
<path d="M181.322 151.113C181.322 151.113 174.582 142.366 169.572 149.599C164.56 156.831 171.645 178.192 183.915 172.978L181.322 151.113Z" fill="#150500"/>
<path d="M181.236 166.378C180.783 166.378 180.366 166.087 180.238 165.64C178.337 159.045 171.316 156.372 171.246 156.345C170.713 156.147 170.443 155.565 170.647 155.043C170.848 154.522 171.448 154.26 171.982 154.458C172.311 154.577 180.045 157.501 182.236 165.096C182.39 165.633 182.069 166.189 181.518 166.34C181.423 166.365 181.327 166.378 181.236 166.378Z" fill="black"/>
<path d="M174.15 163.054C173.958 163.054 173.763 163.003 173.591 162.894C173.11 162.592 172.971 161.967 173.281 161.499C173.332 161.42 174.574 159.578 177.172 158.445C177.691 158.217 178.308 158.445 178.541 158.954C178.774 159.463 178.541 160.06 178.018 160.286C176.009 161.162 175.033 162.578 175.024 162.59C174.824 162.892 174.49 163.054 174.15 163.054Z" fill="black"/>
<path d="M250.775 151.113C250.775 151.113 257.514 142.366 262.526 149.599C267.536 156.831 260.453 178.193 248.183 172.978L250.775 151.113Z" fill="#150500"/>
<path d="M250.861 166.378C251.314 166.378 251.73 166.087 251.859 165.64C253.759 159.045 260.778 156.372 260.85 156.345C261.384 156.147 261.653 155.565 261.45 155.043C261.246 154.522 260.648 154.26 260.114 154.458C259.786 154.577 252.051 157.501 249.861 165.096C249.707 165.633 250.028 166.189 250.58 166.34C250.674 166.365 250.769 166.378 250.861 166.378Z" fill="black"/>
<path d="M257.947 163.054C258.139 163.054 258.334 163.003 258.506 162.894C258.989 162.592 259.126 161.967 258.816 161.499C258.765 161.42 257.523 159.578 254.925 158.445C254.406 158.217 253.79 158.445 253.555 158.954C253.322 159.463 253.555 160.06 254.078 160.286C256.086 161.162 257.062 162.578 257.072 162.59C257.273 162.892 257.605 163.054 257.947 163.054Z" fill="black"/>
<path d="M232.639 191.098V212.342C232.639 212.342 226.13 223.162 217.329 223.898C208.536 224.644 200.723 214.583 200.723 214.583V192.593L232.639 191.098Z" fill="#AF6152"/>
<path d="M232.639 191.098V200.525C226.734 206.906 216.243 208.499 200.721 206.268V192.593L232.639 191.098Z" fill="#150500"/>
<path d="M255.648 136.539C255.245 144.795 254.436 155.118 252.817 163.374C252.414 165.433 251.957 167.371 251.449 169.107C246.855 184.759 235.369 211.605 203.207 200.422C189.002 195.488 182.42 180.087 179.484 164.422C177.494 153.785 177.193 143.038 177.338 135.357C177.494 127.516 181.889 120.349 188.897 116.485C207.882 106.009 227.913 109.915 241.1 114.849C250.256 118.272 256.114 127.023 255.648 136.539Z" fill="#AF6152"/>
<path d="M179.486 164.423C179.486 164.423 182.607 182.522 185.555 189.12C188.509 195.717 196.561 196.961 199.584 202.537C203.897 210.487 210.472 216.789 221.287 212.949C230.285 209.755 229.878 205.276 234.92 201.812C243.557 195.876 247.837 189.343 248.185 183.931C248.532 178.518 252.821 163.374 252.821 163.374L248.185 163.057C248.185 163.057 245.544 168.382 241.658 174.248C237.758 165.912 218.97 171.975 218.97 171.975L215.383 173.105L211.699 171.975C211.699 171.975 192.688 166.169 188.934 174.911C186.634 171.487 184.764 167.637 183.915 163.557L179.486 164.423ZM215.381 175.925C236.93 172.325 233.08 184.606 232.94 185.047V185.054C232.933 185.061 232.933 185.061 232.933 185.061C231.472 186.415 229.985 187.55 228.504 188.329C220.155 192.72 219.252 192.058 215.957 192.199C212.608 192.354 207.984 191.386 203.293 188.836C201.833 188.038 199.652 186.495 197.26 184.37C197.26 184.37 193.875 173.103 215.381 175.925Z" fill="black"/>
<path d="M202.431 153.884C202.431 156.152 201.231 157.99 199.749 157.99C198.269 157.99 197.067 156.152 197.067 153.884C197.067 151.616 198.269 149.779 199.749 149.779C201.23 149.779 202.431 151.616 202.431 153.884Z" fill="black"/>
<path d="M234.313 153.884C234.313 156.152 233.111 157.99 231.63 157.99C230.15 157.99 228.948 156.152 228.948 153.884C228.948 151.616 230.148 149.779 231.63 149.779C233.111 149.779 234.313 151.616 234.313 153.884Z" fill="black"/>
<path d="M242.186 140.364C242.186 140.364 231.103 136.102 222.571 139.689L223.424 144.309C223.424 144.309 235.947 143.279 242.258 145.766C242.824 143.988 242.907 142.191 242.186 140.364Z" fill="black"/>
<path d="M189.495 140.386C189.495 140.386 200.659 136.091 209.254 139.705L208.393 144.359C208.393 144.359 195.777 143.32 189.42 145.827C188.853 144.036 188.769 142.225 189.495 140.386Z" fill="black"/>
<path d="M216.408 171.094C218.156 171.094 219.892 170.432 220.162 170.324C220.692 170.114 220.945 169.524 220.728 169.01C220.514 168.494 219.907 168.246 219.378 168.457C218.443 168.826 216.193 169.407 215.219 168.839C215.03 168.73 214.775 168.512 214.709 167.899C214.335 164.374 215.326 152.561 215.337 152.443C215.384 151.888 214.959 151.4 214.388 151.356C213.816 151.309 213.317 151.724 213.271 152.279C213.229 152.772 212.255 164.399 212.649 168.108C212.798 169.505 213.55 170.219 214.157 170.573C214.817 170.957 215.615 171.094 216.408 171.094Z" fill="black"/>
<path d="M203.192 177.944C203.979 181.8 206.595 188.891 215.408 188.891C224.244 188.891 226.72 182.41 227.571 177.944H203.192Z" fill="white"/>
<path d="M255.647 136.539C255.244 144.795 254.435 155.119 252.817 163.374L248.183 163.055C248.183 163.055 249.305 156.085 249.825 151.542C250.344 147 251.224 138.511 247.241 137.452C243.27 136.402 245.601 126.717 240.076 122.519C234.55 118.31 222.273 114.606 214.124 119.492C205.975 124.367 196.705 121.673 192.953 122.519C189.19 123.357 184.088 128.403 185.468 133.116C186.857 137.818 182.711 140.686 181.705 145.559C180.7 150.434 183.914 163.553 183.914 163.553L179.487 164.421C177.497 153.783 177.196 143.036 177.341 135.355C177.497 127.514 181.892 120.348 188.9 116.483C207.885 106.008 227.916 109.913 241.103 114.847C250.256 118.272 256.113 127.023 255.647 136.539Z" fill="black"/>
<path d="M307.442 532.335C286.464 537.507 265.486 540.851 244.493 542.391C243.541 542.459 242.598 542.526 241.646 542.589C238.76 542.778 235.874 542.935 232.99 543.057C218.712 543.655 204.43 543.421 190.146 542.35C187.265 542.134 184.389 541.885 181.509 541.598C180.589 541.512 179.668 541.417 178.744 541.314C161.692 539.514 144.643 536.516 127.576 532.335C127.405 517.033 127.6 468.652 128.565 416.186C128.677 409.88 128.801 403.516 128.945 397.142C130.456 327.995 133.373 257.805 138.622 250.774C143.652 244.045 158.815 235.493 173.31 227.779C174.174 227.32 175.04 226.861 175.898 226.406C179.158 224.682 182.343 223.013 185.341 221.427C191.764 218.025 197.302 215 200.724 212.664V214.585C200.724 214.585 208.528 224.641 217.323 223.898C225.34 223.229 231.444 214.212 232.48 212.596C236.263 215.189 243.055 218.762 250.928 222.813C253.121 223.943 255.386 225.098 257.698 226.291C258.549 226.727 259.404 227.168 260.265 227.615C276.295 235.892 293.578 245.222 298.767 252.158C299.156 252.671 299.524 253.532 299.877 254.71C302.948 264.828 304.852 298.405 306.011 339.065C306.017 339.21 306.021 339.358 306.026 339.506C306.077 341.149 306.118 342.805 306.16 344.471C306.169 344.687 306.173 344.908 306.178 345.128C306.558 359.391 306.844 374.406 307.066 389.494C307.085 390.69 307.108 391.889 307.121 393.085C307.127 393.689 307.136 394.282 307.14 394.885C307.191 397.855 307.222 400.826 307.251 403.784C307.285 405.966 307.312 408.145 307.33 410.329C307.91 464.863 307.673 516.302 307.442 532.335Z" fill="#190340"/>
<path d="M306.16 344.472C301.112 336.447 295.692 328.255 290.587 321.009C290.572 320.991 290.559 320.973 290.55 320.955C288.405 317.912 286.319 315.041 284.336 312.417C284.303 312.367 284.272 312.323 284.235 312.282C283.615 311.458 283.001 310.656 282.399 309.878C282.302 309.742 282.228 309.603 282.183 309.455L282.177 309.449C282.016 308.922 282.195 308.339 282.672 307.987C283.287 307.531 284.162 307.649 284.624 308.247C290.755 316.155 298.598 327.525 306.014 339.065C306.019 339.209 306.023 339.358 306.028 339.506C306.078 341.15 306.118 342.808 306.16 344.472Z" fill="#33CC33"/>
<path d="M298.982 251.043C298.982 251.043 330.619 307.463 349.904 336.059C349.904 336.059 360.871 326.252 375.135 313.132C390.601 298.906 411.751 275.132 411.751 275.132L423.456 288.643C423.456 288.643 375.933 371.887 354.619 382.35C333.303 392.813 294.025 318.762 294.025 318.762L298.982 251.043Z" fill="#190340"/>
<path d="M165.03 473.409C165.012 473.409 164.995 473.409 164.979 473.409C164.19 473.382 163.572 472.736 163.599 471.966C165.258 426.402 140.986 411.64 140.74 411.498C140.065 411.101 139.843 410.246 140.249 409.587C140.654 408.928 141.529 408.712 142.208 409.105C142.478 409.26 148.895 413.055 155.109 422.778C160.781 431.654 167.356 447.41 166.457 472.064C166.432 472.816 165.797 473.409 165.03 473.409Z" fill="#33CC33"/>
<path d="M268.579 430.482C267.839 430.482 267.212 429.929 267.153 429.198C266.385 419.603 269.632 412.605 273.743 403.744C274.947 401.151 276.189 398.472 277.462 395.467C285.44 376.632 281.43 355.097 281.39 354.881C281.245 354.126 281.755 353.397 282.532 353.256C283.31 353.113 284.057 353.613 284.202 354.369C284.378 355.281 288.405 376.938 280.107 396.529C278.816 399.578 277.563 402.278 276.35 404.892C272.253 413.721 269.294 420.1 270.006 428.984C270.067 429.75 269.478 430.422 268.691 430.481C268.654 430.481 268.617 430.482 268.579 430.482Z" fill="#33CC33"/>
<path d="M185.341 221.426C185.952 225.912 186.849 231.732 187.828 238.341C188.128 240.304 188.427 242.34 188.733 244.431C189.727 251.258 190.756 258.687 191.632 266.198C191.868 268.214 192.09 270.237 192.299 272.253C193.072 279.689 193.655 287.077 193.864 293.945C193.934 296.022 193.961 298.052 193.949 300.022C193.934 305.265 193.635 310.083 192.982 314.205C192.564 316.81 192.197 319.353 191.87 321.844C191.599 323.909 191.356 325.937 191.14 327.934C190.305 335.682 189.889 342.895 189.771 349.694C189.736 351.758 189.729 353.781 189.751 355.763C189.813 363.483 190.265 370.677 190.918 377.523C191.112 379.573 191.327 381.589 191.551 383.579C192.406 391.063 193.448 398.187 194.429 405.231C194.714 407.248 194.992 409.257 195.264 411.267C195.688 414.487 196.091 417.709 196.438 420.95C196.807 424.388 197.044 428.406 197.154 432.865C197.209 434.813 197.236 436.85 197.243 438.954C197.271 445.619 197.097 453.001 196.777 460.721C196.695 462.737 196.603 464.78 196.5 466.845C196.146 474.016 195.68 481.391 195.159 488.672C195.007 490.722 194.853 492.76 194.693 494.788C194.116 502.367 193.477 509.75 192.83 516.616C192.635 518.7 192.441 520.738 192.246 522.713C191.501 530.27 190.78 536.99 190.147 542.349C204.431 543.419 218.717 543.655 232.994 543.053C233.328 537.349 234.237 528.147 235.135 517.314C235.302 515.332 235.461 513.289 235.621 511.205C236.156 504.317 236.643 496.956 236.962 489.526C237.052 487.49 237.129 485.445 237.184 483.409C237.4 475.993 237.406 468.625 237.079 461.718C236.982 459.619 236.857 457.569 236.69 455.574C236.523 453.531 236.322 451.542 236.079 449.621C235.391 444.194 235.127 438.985 235.162 433.829C235.169 431.786 235.224 429.756 235.322 427.72C235.648 420.655 236.441 413.578 237.358 406.062C237.602 404.065 237.859 402.035 238.116 399.965C238.943 393.281 239.805 386.19 240.486 378.429C240.666 376.439 240.827 374.403 240.98 372.319C241.453 365.662 241.772 358.51 241.822 350.715C241.834 348.706 241.829 346.656 241.801 344.558C241.724 337.811 241.433 330.593 240.869 322.818C240.82 322.128 240.772 321.43 240.717 320.726C240.613 319.366 240.523 317.992 240.46 316.619C240.092 309.528 240.189 302.235 240.6 294.961C240.712 292.918 240.849 290.875 241.011 288.831C241.587 281.55 242.429 274.337 243.401 267.423C243.685 265.365 243.985 263.33 244.291 261.326C245.46 253.747 246.716 246.616 247.87 240.243C248.254 238.146 248.62 236.129 248.969 234.207C249.754 229.903 250.435 226.067 250.936 222.819C243.06 218.765 236.268 215.194 232.487 212.603C231.451 214.221 225.349 223.232 217.326 223.903C208.533 224.648 200.727 214.592 200.727 214.592V212.671C197.302 214.999 191.764 218.024 185.341 221.426Z" fill="white"/>
<path d="M187.829 238.343C188.128 240.306 188.427 242.342 188.733 244.433C196.624 244.608 205.888 243.458 217.051 240.949C229.007 238.27 239.552 238.736 247.865 240.238C248.248 238.141 248.615 236.123 248.964 234.202C239.956 232.584 228.591 232.118 215.648 235.02C204.63 237.491 195.453 238.627 187.829 238.343Z" fill="#E3E3E3"/>
<path d="M191.632 266.2C191.869 268.216 192.091 270.239 192.3 272.255C199.383 272.073 207.531 270.921 217.054 268.776C226.946 266.557 235.884 266.503 243.398 267.416C243.683 265.358 243.982 263.323 244.288 261.319C236.141 260.339 226.445 260.419 215.65 262.842C206.402 264.921 198.451 266.057 191.632 266.2Z" fill="#E3E3E3"/>
<path d="M193.863 293.947C193.933 296.024 193.961 298.054 193.948 300.024C200.642 299.718 208.261 298.583 217.052 296.606C225.741 294.657 233.694 294.379 240.595 294.956C240.707 292.913 240.845 290.87 241.006 288.825C233.582 288.23 225.025 288.568 215.649 290.672C207.397 292.527 200.174 293.631 193.863 293.947Z" fill="#E3E3E3"/>
<path d="M191.138 327.934C198.493 327.853 207 326.689 217.051 324.435C225.852 322.46 233.9 322.203 240.866 322.812C240.816 322.123 240.769 321.425 240.714 320.721C240.609 319.36 240.519 317.987 240.457 316.614C233.159 316.08 224.797 316.444 215.648 318.501C206.508 320.558 198.638 321.682 191.868 321.844C191.597 323.909 191.353 325.939 191.138 327.934Z" fill="#E3E3E3"/>
<path d="M189.747 355.764C197.413 355.824 206.361 354.667 217.051 352.265C226.275 350.196 234.651 349.999 241.817 350.71C241.83 348.701 241.825 346.651 241.797 344.553C234.193 343.869 225.365 344.153 215.647 346.331C205.548 348.597 196.997 349.742 189.769 349.694C189.732 351.758 189.725 353.782 189.747 355.764Z" fill="#E3E3E3"/>
<path d="M190.914 377.525C191.109 379.575 191.323 381.592 191.547 383.581C198.805 383.467 207.187 382.309 217.051 380.097C225.705 378.156 233.623 377.858 240.484 378.425C240.664 376.436 240.825 374.4 240.978 372.316C233.553 371.722 225.011 372.059 215.648 374.163C206.082 376.307 197.895 377.45 190.914 377.525Z" fill="#E3E3E3"/>
<path d="M194.426 405.231C194.711 407.248 194.989 409.257 195.261 411.267C201.636 410.882 208.822 409.773 217.052 407.924C224.42 406.267 231.253 405.814 237.357 406.057C237.601 404.06 237.858 402.03 238.115 399.96C231.385 399.662 223.831 400.149 215.649 401.99C207.633 403.785 200.598 404.88 194.426 405.231Z" fill="#E3E3E3"/>
<path d="M197.15 432.865C197.205 434.813 197.233 436.851 197.24 438.954C203.115 438.474 209.669 437.411 217.05 435.747C223.55 434.292 229.631 433.765 235.157 433.826C235.164 431.783 235.219 429.752 235.317 427.716C229.318 427.656 222.715 428.231 215.645 429.82C208.794 431.358 202.649 432.379 197.15 432.865Z" fill="#E3E3E3"/>
<path d="M196.497 466.844C202.558 466.391 209.35 465.302 217.051 463.576C224.301 461.953 231.038 461.485 237.077 461.716C236.98 459.617 236.855 457.567 236.688 455.573C230.328 455.396 223.259 455.939 215.648 457.642C208.634 459.219 202.371 460.255 196.775 460.721C196.691 462.739 196.601 464.782 196.497 466.844Z" fill="#E3E3E3"/>
<path d="M194.69 494.79C201.203 494.431 208.578 493.308 217.051 491.408C224.259 489.79 230.954 489.317 236.96 489.528C237.05 487.492 237.127 485.447 237.182 483.411C230.697 483.195 223.461 483.722 215.648 485.476C207.954 487.208 201.155 488.283 195.156 488.676C195.002 490.724 194.85 492.76 194.69 494.79Z" fill="#E3E3E3"/>
<path d="M192.242 522.714C199.34 522.539 207.5 521.382 217.051 519.236C223.536 517.78 229.612 517.246 235.13 517.314C235.297 515.332 235.457 513.289 235.616 511.205C229.535 511.118 222.833 511.685 215.645 513.302C206.937 515.257 199.373 516.373 192.825 516.618C192.631 518.702 192.436 520.739 192.242 522.714Z" fill="#E3E3E3"/>
<path d="M241.643 542.587C242.595 542.526 243.54 542.458 244.492 542.39C250.122 510.17 246.877 462.873 245.666 448.38C244.415 433.331 246.82 413.98 252.263 395.304C256.49 380.799 253.896 347.163 251.817 320.139C251.234 312.555 250.678 305.389 250.351 299.503C249.287 280.475 256.363 245.265 260.263 227.618C259.401 227.171 258.546 226.732 257.699 226.291C253.793 243.761 246.458 279.772 247.57 299.651C247.904 305.565 248.46 312.744 249.043 320.343C251.107 347.158 253.679 380.522 249.592 394.562C244.059 413.541 241.619 433.238 242.897 448.596C244.103 463.111 247.37 510.704 241.643 542.587Z" fill="#33CC33"/>
<path d="M183.97 411.483C187.279 431.295 186.235 444.165 185.026 459.056C184.638 463.875 184.234 468.848 183.95 474.341C183.067 491.581 180.071 526.298 178.743 541.313C179.668 541.415 180.585 541.51 181.51 541.597C182.838 526.582 185.841 491.777 186.729 474.477C187.008 469.023 187.41 464.064 187.8 459.273C189.017 444.204 190.073 431.186 186.709 411.049C185.993 406.726 185.228 402.342 184.471 397.977C180.724 376.385 176.844 354.058 178.681 343.361C179.125 340.748 179.695 337.786 180.308 334.646C182.796 321.737 185.903 305.674 184.924 291.734C183.95 277.917 178.132 240.507 175.901 226.406C175.039 226.86 174.179 227.321 173.309 227.78C175.637 242.523 181.205 278.5 182.15 291.916C183.102 305.51 180.036 321.39 177.576 334.145C176.964 337.298 176.387 340.275 175.936 342.913C174.032 354.058 177.771 375.607 181.733 398.429C182.489 402.79 183.247 407.167 183.97 411.483Z" fill="#33CC33"/>
<path d="M129.255 273.752C129.255 273.752 100.935 365.682 93.9215 398.444C86.9079 431.206 86.3649 499.314 86.3649 499.314C86.3649 499.314 73.9834 524.333 73.6917 535.465C73.3798 547.334 79.7806 556.779 79.0505 564.545C78.3203 572.313 88.0343 568.095 85.2898 552.362C82.5453 536.63 90.3312 522.381 93.6922 522.838C97.0531 523.295 90.9109 540.015 93.8958 546.041C96.8788 552.066 100.742 540.362 104.582 533.26C108.57 525.885 108.336 509.795 106.521 498.309C104.707 486.822 126.096 417.055 126.199 396.84L153.284 307.75C153.284 307.75 144.337 270.559 129.255 273.752Z" fill="#AF6152"/>
<path d="M156.756 305.512C155.796 311.419 152.439 321.56 148.102 334.322V334.329C147.733 335.404 147.357 336.5 146.983 337.616C146.963 337.663 146.941 337.718 146.928 337.772C145.844 340.945 144.71 344.267 143.543 347.704C143.536 347.724 143.53 347.745 143.523 347.765C138.72 361.96 133.402 378.2 128.94 394.885C127.405 400.595 125.972 406.367 124.701 412.117C123.073 419.459 121.697 426.78 120.69 433.945C117.069 459.758 110.145 492.453 110.145 492.453C99.9889 496.512 84.1126 491.154 84.1126 491.154C84.1126 491.154 83.7016 444.069 85.9692 425.771C88.7705 403.151 92.3369 387.049 96.7564 368.562C108.921 317.687 130.331 267.908 136.203 254.706C136.669 253.651 137.038 252.831 137.295 252.263H142.349C152.294 258.419 159.35 289.597 156.756 305.512Z" fill="#190340"/>
<path d="M83.2856 481.729L84.0818 492.563C84.0818 492.563 99.1766 497.339 110.492 493.976L113.484 484.311C102.589 484.872 92.5227 484.611 83.2856 481.729Z" fill="#0C0021"/>
<path d="M148.102 334.322V334.329C148.102 334.484 148.074 334.64 148.019 334.795C147.678 335.709 147.331 336.649 146.983 337.617C146.963 337.663 146.941 337.718 146.928 337.772C145.816 340.844 144.682 344.187 143.543 347.705C143.536 347.724 143.53 347.746 143.523 347.765C137.608 366.061 131.594 389.079 128.828 403.783C128.855 400.826 128.89 397.856 128.94 394.887C127.404 400.598 125.972 406.369 124.7 412.119C125.271 406.726 126.856 398.648 129.017 389.494C133.383 370.968 140.083 348.022 145.407 333.868C145.671 333.165 146.471 332.806 147.194 333.063C147.755 333.266 148.102 333.774 148.102 334.322Z" fill="#33CC33"/>
<path d="M654.698 577.438H721.596C721.374 572.921 721.154 568.591 720.941 564.503C719.774 542.206 718.783 527.023 718.783 527.023L664.379 529.375L659.868 529.573L651.866 529.922C651.866 529.922 652.638 543.497 653.84 563.387C654.104 567.786 654.392 572.498 654.698 577.438Z" fill="black"/>
<path d="M659.866 529.573L651.864 529.922C651.864 529.922 652.636 543.497 653.838 563.387C674.741 565.084 697.563 565.775 720.939 564.502C719.772 542.204 718.781 527.022 718.781 527.022L664.377 529.373L659.866 529.573Z" fill="#0C0021"/>
<path d="M667.15 577.438C665.926 556.8 664.924 539.167 664.374 529.377L659.863 529.576C660.411 539.321 661.409 556.871 662.629 577.438H667.15Z" fill="#0C0021"/>
<path d="M635.072 577.438C635.417 571.847 635.74 566.545 636.035 561.657C637.187 542.712 637.91 529.922 637.91 529.922L629.225 529.545L624.721 529.347L570.985 527.022C570.985 527.022 570.394 536.071 569.587 550.453C569.159 558.118 568.67 567.304 568.174 577.436H635.072V577.438Z" fill="black"/>
<path d="M569.584 550.453C584.171 553.791 607.688 558.476 636.032 561.655C637.184 542.71 637.907 529.92 637.907 529.92L629.222 529.543L624.718 529.345L570.982 527.02C570.982 527.02 570.393 536.07 569.584 550.453Z" fill="#0C0021"/>
<path d="M626.458 577.438C627.678 556.85 628.676 539.285 629.222 529.547L624.718 529.349C624.168 539.133 623.165 556.779 621.941 577.438H626.458Z" fill="#0C0021"/>
<path d="M728.495 537.172C714.868 540.822 701.243 543.578 687.615 545.426C682.877 546.074 678.142 546.614 673.407 547.037C667.021 547.614 660.636 547.999 654.256 548.194C643.7 548.508 633.144 548.283 622.582 547.522C602.167 546.069 581.757 542.599 561.339 537.17C561.15 518.641 561.436 452.19 562.865 388.097C562.935 385.22 562.999 382.345 563.072 379.482C563.081 378.875 563.1 378.266 563.114 377.659C563.129 376.996 563.147 376.336 563.166 375.678C563.212 373.644 563.267 371.619 563.318 369.603C563.424 365.485 563.535 361.403 563.656 357.362C563.729 354.946 563.804 352.542 563.878 350.16C563.89 349.665 563.911 349.174 563.923 348.683C563.975 347.111 564.024 345.551 564.076 343.997C564.076 343.997 564.076 343.997 564.076 343.992C564.094 343.509 564.109 343.029 564.127 342.547C564.173 341.115 564.224 339.693 564.27 338.284C564.316 337.082 564.358 335.898 564.4 334.711C565.982 291.475 568.293 257.372 571.605 252.565C577.219 244.415 596.338 233.594 611.716 224.785C617.196 221.653 623.738 218.394 627.482 215.978C632.944 220.258 636.906 224.124 645.002 223.858C654.059 223.557 656.294 218.255 659.748 213.708C661.856 215.04 667.211 219.315 669.994 220.905C672.376 222.273 674.955 223.723 677.646 225.23C681.807 227.548 686.232 230.01 690.617 232.521C697.113 236.243 703.517 240.082 708.83 243.75C714.134 247.418 718.346 250.924 720.432 253.963C723.437 258.356 725.384 286.797 726.637 324.227C726.688 325.535 726.725 326.864 726.776 328.2C726.782 328.362 726.782 328.523 726.782 328.691C726.833 330.05 726.875 331.446 726.906 332.841C727.031 337.054 727.147 341.358 727.268 345.731C727.292 346.654 727.314 347.585 727.328 348.513C727.347 349.211 727.37 349.913 727.374 350.601C727.416 352.401 727.457 354.206 727.499 356.028C727.508 356.392 727.514 356.756 727.523 357.122C727.625 361.924 727.721 366.794 727.809 371.705C727.836 373.141 727.86 374.582 727.882 376.021C729.022 443.411 728.757 517.261 728.495 537.172Z" fill="#190340"/>
<path d="M727.879 376.029L706.301 397.335L686.196 377.495L666.096 397.335L645.918 377.414L625.73 397.335L605.418 377.284L585.1 397.335L563.164 375.68C563.21 373.646 563.265 371.621 563.316 369.605C563.423 365.487 563.533 361.405 563.654 357.364L585.1 336.191L605.418 356.248L625.73 336.191L645.918 356.112L666.096 336.191L686.196 356.031L706.301 336.191L727.519 357.13C727.622 361.932 727.717 366.801 727.805 371.712C727.833 373.148 727.857 374.587 727.879 376.029Z" fill="#33CC33"/>
<path d="M690.632 485.847H690.626C661.732 485.724 637.07 472.925 621.469 462.211C604.596 450.623 594.37 438.881 594.269 438.763C593.776 438.192 593.851 437.338 594.438 436.856C595.027 436.376 595.904 436.449 596.397 437.02C596.496 437.135 606.537 448.653 623.136 460.043C638.398 470.514 662.499 483.02 690.639 483.142C691.406 483.145 692.026 483.754 692.024 484.501C692.019 485.245 691.397 485.847 690.632 485.847Z" fill="#33CC33"/>
<path d="M672.609 469.212C648.007 464.505 626.231 446.163 625.242 445.322C624.664 444.829 624.606 443.976 625.11 443.413C625.616 442.851 626.493 442.795 627.071 443.285C627.326 443.503 652.953 465.073 679.068 467.393C679.844 467.455 680.397 468.12 680.327 468.862C680.257 469.607 679.58 470.155 678.817 470.087C676.735 469.904 674.662 469.605 672.609 469.212Z" fill="#33CC33"/>
<path d="M623.337 261.081C622.682 261.081 622.099 260.629 621.972 259.979C621.829 259.245 622.325 258.537 623.079 258.397C658.306 251.89 668.923 229.832 669.027 229.609C669.343 228.928 670.166 228.625 670.867 228.934C671.566 229.241 671.878 230.043 671.561 230.725C671.115 231.684 660.23 254.292 623.598 261.058C623.512 261.072 623.423 261.081 623.337 261.081Z" fill="#33CC33"/>
<path d="M580.356 320.461V320.47C580.323 320.618 580.253 320.766 580.167 320.902C579.641 321.725 579.09 322.577 578.54 323.445C578.512 323.495 578.479 323.534 578.457 323.589C576.696 326.363 574.86 329.391 572.968 332.591C572.963 332.615 572.954 332.627 572.935 332.645C569.98 337.681 566.92 343.142 563.924 348.687C563.975 347.115 564.025 345.554 564.076 344.001C564.076 344.001 564.076 344.001 564.076 343.995C564.094 343.513 564.109 343.033 564.127 342.551C568.96 333.818 573.777 325.65 577.819 319.457C578.235 318.823 579.09 318.643 579.741 319.039C580.246 319.359 580.477 319.925 580.356 320.461Z" fill="#33CC33"/>
<path d="M757.866 270.305C757.866 270.305 802.914 256.212 816.244 227.437C820.1 219.103 788.336 134.494 788.336 134.494L773.005 135.216C773.005 135.216 777.375 164.572 780.022 181.194C782.2 194.861 785.719 211.192 786.905 216.569C787.164 217.735 787.309 218.383 787.309 218.383C786.557 218.51 785.803 218.651 785.036 218.799C763.99 222.96 737.117 236.305 737.117 236.305L757.866 270.305Z" fill="#270900"/>
<path d="M798.625 226.494C799.265 226.948 800.181 226.812 800.64 226.185C801.124 225.55 800.977 224.669 800.322 224.225C797.046 221.907 792.1 219.187 786.906 216.571C787.165 217.737 787.31 218.385 787.31 218.385C786.557 218.512 785.803 218.653 785.037 218.801C790.324 221.446 795.385 224.2 798.625 226.494Z" fill="black"/>
<path d="M688.94 231.596C688.94 231.596 675.314 262.723 710.004 280.052C734.011 292.045 788.7 260.733 788.7 260.733L769.202 220.437C769.202 220.437 719.164 240.529 688.94 231.596Z" fill="#190340"/>
<path d="M780.488 86.9249C779.13 87.8517 779.407 93.568 780.005 98.9522C779.814 98.979 779.618 99.0111 779.422 99.045C777.809 91.859 774.599 79.6372 771.854 81.9694C770.056 83.4962 772.463 94.0359 774.103 100.338C773.764 100.44 773.425 100.543 773.085 100.65C771.018 93.168 766.56 78.755 763.593 81.5569C761.614 83.4266 765.413 96.1181 767.523 102.592C767.227 102.704 766.941 102.813 766.659 102.922C764.641 96.6414 760.329 84.7605 757.376 87.5517C754.701 90.0786 762.364 108.04 762.364 108.04L764.373 115.09C764.373 115.09 761.986 116.094 758.258 111.99C754.53 107.886 750.076 107.165 753.171 113.101C756.669 119.81 761.847 124.621 764.125 129.368C766.405 134.114 773.575 135.684 773.575 135.684L787.971 135.007C787.971 135.007 790.763 111.322 785.393 100.033C784.472 93.3252 782.851 85.3124 780.488 86.9249Z" fill="#270900"/>
<path d="M602.37 141.546C602.37 165.415 617.465 181.862 641.977 181.862C666.497 181.862 683.592 164.181 683.592 140.311C683.592 133.728 682.489 127.582 680.367 122.142C680.242 121.819 680.117 121.494 679.981 121.179C679.721 120.562 679.451 119.944 679.16 119.347C678.732 118.426 678.255 117.524 677.754 116.654C671.366 105.473 659.922 98.3643 644.547 98.3643C615.146 98.3661 602.37 117.678 602.37 141.546Z" fill="black"/>
<path d="M607.876 151.824C607.876 151.824 601.064 142.982 595.999 150.293C590.933 157.604 598.095 179.198 610.495 173.926L607.876 151.824Z" fill="#150500"/>
<path d="M607.787 167.254C607.329 167.254 606.908 166.96 606.778 166.51C604.856 159.843 597.761 157.142 597.69 157.115C597.15 156.913 596.877 156.325 597.083 155.799C597.288 155.272 597.892 155.008 598.433 155.206C598.765 155.327 606.584 158.281 608.796 165.958C608.952 166.501 608.628 167.063 608.07 167.215C607.976 167.242 607.881 167.254 607.787 167.254Z" fill="black"/>
<path d="M600.626 163.896C600.431 163.896 600.235 163.844 600.059 163.733C599.573 163.428 599.431 162.797 599.745 162.322C599.798 162.244 601.053 160.379 603.678 159.236C604.205 159.004 604.827 159.236 605.064 159.751C605.3 160.265 605.064 160.869 604.535 161.097C602.504 161.981 601.517 163.413 601.508 163.428C601.308 163.731 600.971 163.896 600.626 163.896Z" fill="black"/>
<path d="M678.079 151.824C678.079 151.824 684.89 142.982 689.956 150.293C695.021 157.604 687.859 179.198 675.457 173.926L678.079 151.824Z" fill="#150500"/>
<path d="M678.167 167.254C678.623 167.254 679.045 166.96 679.176 166.51C681.098 159.843 688.193 157.142 688.264 157.115C688.803 156.913 689.077 156.325 688.871 155.799C688.666 155.272 688.062 155.008 687.521 155.206C687.189 155.327 679.37 158.281 677.156 165.958C677 166.501 677.325 167.063 677.882 167.215C677.978 167.242 678.073 167.254 678.167 167.254Z" fill="black"/>
<path d="M685.328 163.896C685.522 163.896 685.719 163.844 685.895 163.733C686.381 163.428 686.522 162.797 686.209 162.322C686.157 162.244 684.901 160.379 682.275 159.236C681.751 159.004 681.127 159.236 680.89 159.751C680.653 160.265 680.89 160.869 681.418 161.097C683.449 161.981 684.436 163.413 684.446 163.428C684.645 163.731 684.983 163.896 685.328 163.896Z" fill="black"/>
<path d="M659.746 192.241V213.715C659.746 213.715 653.167 224.651 644.269 225.396C635.381 226.151 627.483 215.98 627.483 215.98V193.75L659.746 192.241Z" fill="#2A0A00"/>
<path d="M659.746 192.241V201.77C653.776 208.219 643.172 209.829 627.483 207.574V193.75L659.746 192.241Z" fill="#150500"/>
<path d="M683.005 137.093C682.596 145.438 681.777 155.874 680.143 164.219C679.734 166.299 679.273 168.258 678.76 170.013C674.116 185.836 662.505 212.972 629.995 201.668C615.638 196.679 608.982 181.112 606.017 165.279C604.005 154.527 603.7 143.662 603.849 135.9C604.007 127.974 608.45 120.729 615.535 116.822C634.724 106.233 654.973 110.181 668.303 115.17C677.554 118.628 683.476 127.473 683.005 137.093Z" fill="#2A0A00"/>
<path d="M629.037 154.626C629.037 156.919 627.823 158.776 626.326 158.776C624.829 158.776 623.614 156.919 623.614 154.626C623.614 152.333 624.829 150.476 626.326 150.476C627.825 150.476 629.037 152.335 629.037 154.626Z" fill="black"/>
<path d="M660.991 154.541C660.991 156.834 659.778 158.692 658.279 158.692C656.782 158.692 655.568 156.834 655.568 154.541C655.568 152.249 656.782 150.391 658.279 150.391C659.776 150.39 660.991 152.249 660.991 154.541Z" fill="black"/>
<path d="M667.116 140.276C667.116 140.276 658.563 136.985 651.977 139.755L652.636 143.319C652.636 143.319 662.302 142.523 667.171 144.445C667.608 143.075 667.672 141.687 667.116 140.276Z" fill="black"/>
<path d="M617.281 140.276C617.281 140.276 625.834 136.985 632.42 139.755L631.761 143.319C631.761 143.319 622.097 142.523 617.226 144.445C616.789 143.075 616.725 141.687 617.281 140.276Z" fill="black"/>
<path d="M643.341 172.021C645.11 172.021 646.862 171.351 647.135 171.242C647.671 171.03 647.926 170.435 647.708 169.912C647.489 169.39 646.877 169.14 646.343 169.353C645.396 169.726 643.123 170.313 642.138 169.74C641.949 169.63 641.689 169.41 641.622 168.79C641.245 165.228 642.246 153.286 642.255 153.166C642.303 152.606 641.874 152.113 641.298 152.066C640.718 152.018 640.215 152.438 640.168 152.999C640.125 153.497 639.14 165.251 639.538 168.999C639.689 170.41 640.45 171.133 641.063 171.49C641.734 171.883 642.54 172.021 643.341 172.021Z" fill="black"/>
<path d="M629.268 177.201C631.01 183.087 635.962 188.959 642.785 189.041C649.6 188.96 654.553 183.087 656.294 177.201H629.268Z" fill="white"/>
<path d="M642.202 195.434C644.916 195.434 647.214 194.096 647.312 194.039C647.807 193.748 647.965 193.12 647.666 192.637C647.367 192.155 646.721 192.002 646.226 192.293C646.209 192.303 644.316 193.391 642.202 193.391C640.263 193.391 638.407 192.309 638.388 192.296C637.897 192.002 637.251 192.148 636.946 192.628C636.642 193.107 636.794 193.736 637.288 194.032C637.381 194.093 639.641 195.434 642.202 195.434Z" fill="black"/>
<path d="M681.897 152.004H677.147C677.672 147.363 678.424 139.188 674.509 138.016C662.133 134.316 678.171 125.803 672.585 121.558C666.999 117.305 653.094 119.128 643.424 118.822C633.696 118.515 618.06 118.649 614.266 119.506C610.461 120.353 612.547 126.501 613.941 131.266C615.346 136.02 609.278 141.284 608.261 146.213C607.97 147.627 608.03 149.727 608.263 152.004H604.304C603.834 146.007 603.765 140.425 603.849 135.898C604.007 127.973 608.45 120.728 615.535 116.821C634.725 106.231 654.973 110.179 668.303 115.169C677.556 118.626 683.478 127.471 683.007 137.091C682.781 141.664 682.433 146.865 681.897 152.004Z" fill="black"/>
<path d="M625.848 166.644C619.306 166.644 613.984 161.464 613.984 155.095C613.984 148.727 619.306 143.547 625.848 143.547C632.391 143.547 637.713 148.727 637.713 155.095C637.713 161.464 632.391 166.644 625.848 166.644ZM625.848 145.347C620.326 145.347 615.834 149.72 615.834 155.095C615.834 160.471 620.326 164.844 625.848 164.844C631.371 164.844 635.863 160.471 635.863 155.095C635.863 149.72 631.371 145.347 625.848 145.347Z" fill="white"/>
<path d="M658.279 166.644C651.737 166.644 646.415 161.464 646.415 155.095C646.415 148.727 651.737 143.547 658.279 143.547C664.821 143.547 670.143 148.727 670.143 155.095C670.143 161.464 664.821 166.644 658.279 166.644ZM658.279 145.347C652.757 145.347 648.264 149.72 648.264 155.095C648.264 160.471 652.757 164.844 658.279 164.844C663.801 164.844 668.294 160.471 668.294 155.095C668.294 149.72 663.801 145.347 658.279 145.347Z" fill="white"/>
<path d="M615.989 151.375C615.755 151.375 615.518 151.288 615.338 151.115C615.285 151.063 609.895 145.973 602.825 147.579C602.329 147.693 601.83 147.391 601.715 146.907C601.599 146.423 601.907 145.94 602.405 145.827C610.489 143.991 616.393 149.599 616.641 149.84C617.002 150.19 617.004 150.761 616.644 151.113C616.465 151.288 616.226 151.375 615.989 151.375Z" fill="white"/>
<path d="M668.355 151.375C668.054 151.375 667.757 151.231 667.579 150.966C667.3 150.55 667.42 149.993 667.847 149.722C668.201 149.497 676.596 144.225 683.74 145.37C684.245 145.45 684.586 145.914 684.501 146.404C684.419 146.893 683.946 147.225 683.439 147.145C677.009 146.114 668.941 151.175 668.858 151.227C668.704 151.329 668.53 151.375 668.355 151.375Z" fill="white"/>
<path d="M647.066 152.502C647.045 152.473 644.848 149.582 641.958 149.582C639.098 149.582 637.111 152.47 637.093 152.498L635.544 151.514C635.647 151.363 638.085 147.782 641.958 147.782C645.801 147.782 648.454 151.3 648.564 151.45L647.066 152.502Z" fill="white"/>
<path d="M576.45 318.764C576.45 318.764 563.951 342.322 549.234 360.982C544.891 366.485 540.36 371.562 535.895 375.484C528.659 381.843 521.603 385.17 515.856 382.347C494.54 371.887 447.021 288.643 447.021 288.643L458.724 275.132C458.724 275.132 479.873 298.906 495.34 313.133C509.604 326.253 520.572 336.061 520.572 336.061C522.546 333.136 524.651 329.93 526.837 326.537C529.164 322.937 531.576 319.125 534.033 315.205C551.843 286.741 571.606 252.57 571.606 252.57L576.45 318.764Z" fill="#2A0A00"/>
<path d="M549.234 360.982C544.891 366.485 540.36 371.562 535.895 375.484L526.837 326.537C529.164 322.937 531.576 319.125 534.033 315.205L549.234 360.982Z" fill="#150500"/>
<path d="M571.603 252.57L528.887 317.965L543.224 375.484L578.572 319.457C578.572 319.457 582.858 281.127 571.603 252.57Z" fill="#190340"/>
<path d="M517.892 577.438C514.841 560.98 511.834 542.419 509.101 524.395C508.501 520.409 507.915 516.457 507.336 512.557C505.143 497.633 503.186 483.522 501.614 471.811C501.014 467.362 500.476 463.255 499.986 459.591C498.462 447.901 497.567 440.64 497.567 440.64L430.111 443.122L362.449 440.64C362.449 440.64 360.704 455.007 357.912 475.836C357.402 479.627 356.857 483.626 356.285 487.801C354.782 498.731 353.065 510.803 351.218 523.165C351.19 523.345 351.163 523.527 351.135 523.707C350.555 527.559 349.97 531.438 349.363 535.317C349.356 535.37 349.35 535.417 349.335 535.47V535.478C347.888 544.851 346.371 554.212 344.828 563.218C344.193 566.936 343.553 570.586 342.904 574.141C342.704 575.25 342.502 576.345 342.302 577.434H517.892V577.438Z" fill="#190340"/>
<path d="M377.998 460.363C377.998 463.781 375.153 466.552 371.641 466.552C368.13 466.552 365.283 463.781 365.283 460.363C365.283 456.945 368.13 454.175 371.641 454.175C375.153 454.175 377.998 456.945 377.998 460.363Z" fill="#0C0021"/>
<path d="M393.776 484.339C393.776 487.757 390.929 490.527 387.419 490.527C383.908 490.527 381.061 487.755 381.061 484.339C381.061 480.921 383.908 478.151 387.419 478.151C390.929 478.149 393.776 480.921 393.776 484.339Z" fill="#0C0021"/>
<path d="M424.814 471.961C424.814 475.379 421.967 478.149 418.457 478.149C414.946 478.149 412.101 475.377 412.101 471.961C412.101 468.543 414.946 465.773 418.457 465.773C421.969 465.773 424.814 468.543 424.814 471.961Z" fill="#0C0021"/>
<path d="M375.825 509.8C375.825 513.218 372.978 515.99 369.468 515.99C365.957 515.99 363.111 513.218 363.111 509.8C363.111 506.382 365.957 503.612 369.468 503.612C372.978 503.612 375.825 506.382 375.825 509.8Z" fill="#0C0021"/>
<path d="M414.612 507.153C414.612 510.571 411.767 513.341 408.255 513.341C404.744 513.341 401.898 510.571 401.898 507.153C401.898 503.735 404.746 500.965 408.255 500.965C411.765 500.965 414.612 503.735 414.612 507.153Z" fill="#0C0021"/>
<path d="M362.051 481.642C362.051 484.863 359.528 487.513 356.289 487.803C356.861 483.629 357.406 479.629 357.916 475.838C360.336 476.716 362.051 478.977 362.051 481.642Z" fill="#0C0021"/>
<path d="M477.818 543.512C477.818 546.93 474.973 549.7 471.462 549.7C467.95 549.7 465.103 546.929 465.103 543.512C465.103 540.094 467.95 537.323 471.462 537.323C474.971 537.323 477.818 540.094 477.818 543.512Z" fill="#0C0021"/>
<path d="M474.816 509.8C474.816 513.218 471.968 515.99 468.459 515.99C464.947 515.99 462.102 513.218 462.102 509.8C462.102 506.382 464.949 503.612 468.459 503.612C471.968 503.612 474.816 506.382 474.816 509.8Z" fill="#0C0021"/>
<path d="M509.099 524.393C508.334 524.709 507.487 524.883 506.604 524.883C503.095 524.883 500.248 522.111 500.248 518.695C500.248 515.279 503.095 512.509 506.604 512.509C506.852 512.509 507.094 512.522 507.334 512.555C507.914 516.456 508.499 520.408 509.099 524.393Z" fill="#0C0021"/>
<path d="M481.173 568.219C481.173 571.637 478.326 574.406 474.816 574.406C471.305 574.406 468.459 571.637 468.459 568.219C468.459 564.801 471.305 562.029 474.816 562.029C478.326 562.029 481.173 564.801 481.173 568.219Z" fill="#0C0021"/>
<path d="M508.365 558.34C508.365 561.758 505.518 564.527 502.007 564.527C498.495 564.527 495.65 561.756 495.65 558.34C495.65 554.922 498.495 552.152 502.007 552.152C505.52 552.15 508.365 554.922 508.365 558.34Z" fill="#0C0021"/>
<path d="M451.78 577.438C450.637 575.812 448.72 574.742 446.541 574.742C444.361 574.742 442.444 575.812 441.301 577.438H451.78Z" fill="#0C0021"/>
<path d="M371.642 548.895C371.642 552.313 368.794 555.082 365.283 555.082C361.772 555.082 358.926 552.313 358.926 548.895C358.926 545.477 361.772 542.705 365.283 542.705C368.796 542.705 371.642 545.477 371.642 548.895Z" fill="#0C0021"/>
<path d="M354.868 529.346C354.868 532.487 352.463 535.083 349.339 535.473C349.354 535.419 349.359 535.373 349.366 535.319C349.974 531.44 350.559 527.562 351.139 523.71C353.336 524.69 354.868 526.844 354.868 529.346Z" fill="#0C0021"/>
<path d="M347.436 568.213C347.436 571.012 345.526 573.374 342.906 574.146C343.554 570.59 344.196 566.938 344.831 563.222C346.408 564.347 347.436 566.167 347.436 568.213Z" fill="#0C0021"/>
<path d="M387.419 570.833C387.419 574.251 384.571 577.022 381.06 577.022C377.549 577.022 374.703 574.251 374.703 570.833C374.703 567.415 377.55 564.645 381.06 564.645C384.571 564.643 387.419 567.415 387.419 570.833Z" fill="#0C0021"/>
<path d="M420.968 565.986C420.968 569.404 418.121 572.175 414.612 572.175C411.102 572.175 408.255 569.404 408.255 565.986C408.255 562.568 411.1 559.798 414.612 559.798C418.123 559.798 420.968 562.568 420.968 565.986Z" fill="#0C0021"/>
<path d="M397.034 535.558C397.034 538.976 394.186 541.748 390.675 541.748C387.164 541.748 384.318 538.976 384.318 535.558C384.318 532.14 387.164 529.371 390.675 529.371C394.186 529.371 397.034 532.142 397.034 535.558Z" fill="#0C0021"/>
<path d="M431.173 529.371C431.173 532.789 428.327 535.558 424.816 535.558C421.304 535.558 418.459 532.789 418.459 529.371C418.459 525.953 421.306 523.183 424.816 523.183C428.325 523.183 431.173 525.953 431.173 529.371Z" fill="#0C0021"/>
<path d="M446.542 496.716C446.542 500.134 443.696 502.903 440.185 502.903C436.673 502.903 433.826 500.132 433.826 496.716C433.826 493.298 436.673 490.526 440.185 490.526C443.694 490.526 446.542 493.298 446.542 496.716Z" fill="#0C0021"/>
<path d="M501.612 471.811C501.172 471.911 500.717 471.959 500.247 471.959C496.731 471.959 493.891 469.188 493.891 465.772C493.891 462.443 496.593 459.72 499.985 459.591C500.475 463.255 501.014 467.363 501.612 471.811Z" fill="#0C0021"/>
<path d="M468.457 471.961C468.457 475.379 465.609 478.149 462.1 478.149C458.589 478.149 455.743 475.377 455.743 471.961C455.743 468.543 458.589 465.773 462.1 465.773C465.611 465.773 468.457 468.543 468.457 471.961Z" fill="#0C0021"/>
<path d="M491.743 494.016C491.743 497.434 488.897 500.203 485.386 500.203C481.875 500.203 479.029 497.432 479.029 494.016C479.029 490.598 481.877 487.826 485.386 487.826C488.896 487.826 491.743 490.598 491.743 494.016Z" fill="#0C0021"/>
<path d="M452.898 548.895C452.898 552.313 450.05 555.082 446.541 555.082C443.03 555.082 440.184 552.313 440.184 548.895C440.184 545.477 443.03 542.705 446.541 542.705C450.052 542.705 452.898 545.477 452.898 548.895Z" fill="#0C0021"/>
<path d="M501.671 442.265C466.086 464.879 400.747 463.107 359.688 442.265C363.61 418.484 368.775 394.674 367.665 363.023C367.54 359.553 367.39 356.105 367.21 352.689C367.052 349.715 366.872 346.763 366.68 343.844C363.135 291.186 353.906 248.133 358.441 242.57C360.42 240.134 363.72 237.504 367.795 234.813C369.395 233.752 371.105 232.679 372.91 231.605C377.17 229.075 381.906 226.525 386.662 224.043C397.946 218.178 409.403 212.735 415.147 209.019C420.841 211.435 425.377 212.756 430.266 212.73C430.396 212.73 430.541 212.73 430.686 212.715C430.818 212.73 430.961 212.73 431.093 212.73C435.98 212.756 440.517 211.435 446.217 209.019C451.547 212.469 461.576 217.28 471.813 222.526C479.335 226.386 486.965 230.479 492.907 234.45C496.794 237.047 499.974 239.597 501.916 241.986C504.164 244.743 503.219 256.837 501.296 274.753C499.394 292.381 496.547 315.66 494.824 341.247C494.349 348.353 493.956 355.633 493.694 363.023C492.591 394.676 497.748 418.484 501.671 442.265Z" fill="#190340"/>
<path d="M479.909 415.966H479.903C451.247 415.843 426.789 403.152 411.316 392.524C394.583 381.033 384.441 369.388 384.341 369.27C383.851 368.704 383.926 367.856 384.507 367.379C385.091 366.902 385.96 366.975 386.45 367.541C386.549 367.656 396.506 379.079 412.967 390.373C428.102 400.757 452.005 413.161 479.912 413.281C480.674 413.284 481.288 413.888 481.284 414.629C481.284 415.37 480.666 415.966 479.909 415.966Z" fill="#33CC33"/>
<path d="M460.938 399.728C436.54 395.06 414.942 376.87 413.962 376.034C413.39 375.545 413.331 374.698 413.832 374.141C414.332 373.582 415.204 373.529 415.778 374.015C416.031 374.231 441.447 395.622 467.346 397.924C468.116 397.985 468.663 398.646 468.593 399.382C468.524 400.119 467.854 400.664 467.095 400.596C465.029 400.412 462.972 400.117 460.938 399.728Z" fill="#33CC33"/>
<path d="M424.814 276.854C424.165 276.854 423.587 276.405 423.46 275.761C423.319 275.032 423.811 274.33 424.557 274.191C459.493 267.737 470.023 245.86 470.126 245.64C470.44 244.965 471.256 244.665 471.951 244.97C472.645 245.276 472.953 246.07 472.639 246.745C472.197 247.697 461.403 270.118 425.073 276.827C424.985 276.845 424.899 276.854 424.814 276.854Z" fill="#33CC33"/>
<path d="M471.811 222.528C464.876 237.925 447.829 253.869 425.66 250.14C404.192 246.527 394.011 235.475 386.663 224.043C397.949 218.176 409.408 212.74 415.147 209.021C420.841 211.433 425.378 212.755 430.262 212.733C430.394 212.733 430.542 212.733 430.682 212.719C430.814 212.733 430.962 212.733 431.094 212.733C435.978 212.755 440.515 211.433 446.219 209.021C451.546 212.467 461.579 217.278 471.811 222.528Z" fill="#F0997A"/>
<path d="M453.278 210.148C452.665 210.141 452.179 210.619 452.174 211.208C452.166 212.075 451.803 232.425 433.036 234.002C415.627 235.475 408.421 219.253 406.196 212.525C406.066 212.13 405.689 211.866 405.264 211.866H405.058C404.389 211.866 403.915 212.501 404.126 213.119C406.502 220.062 414.09 236.829 431.825 236.213C432.285 236.197 432.751 236.168 433.224 236.129C453.995 234.384 454.366 211.453 454.368 211.221C454.372 210.632 453.884 210.151 453.278 210.148Z" fill="white"/>
<path d="M466.547 101.972C466.547 101.972 483.32 127.262 481.482 153.604C479.644 179.946 483.955 210.355 459.738 209.019C435.524 207.683 392.331 218.469 378.603 197.952C364.875 177.437 466.547 101.972 466.547 101.972Z" fill="black"/>
<path d="M472.76 148.474C472.76 148.474 477.114 186.657 458.5 197.17C439.887 207.683 426.416 195.945 426.416 195.945C426.416 195.945 465.651 142.723 472.76 148.474Z" fill="black"/>
<path d="M395.446 148.297C395.446 148.297 388.763 139.624 383.793 146.795C378.823 153.969 385.849 175.153 398.016 169.982L395.446 148.297Z" fill="#150500"/>
<path d="M395.359 163.435C394.91 163.435 394.497 163.145 394.369 162.704C392.483 156.163 385.522 153.513 385.451 153.486C384.921 153.29 384.655 152.711 384.855 152.195C385.056 151.679 385.649 151.418 386.179 151.613C386.504 151.733 394.176 154.631 396.348 162.163C396.5 162.695 396.183 163.247 395.636 163.397C395.545 163.422 395.451 163.435 395.359 163.435Z" fill="black"/>
<path d="M388.331 160.14C388.14 160.14 387.948 160.088 387.775 159.981C387.298 159.681 387.16 159.063 387.467 158.597C387.518 158.521 388.749 156.692 391.327 155.569C391.842 155.342 392.453 155.569 392.684 156.074C392.916 156.578 392.684 157.17 392.165 157.395C390.173 158.263 389.204 159.667 389.195 159.681C389.001 159.979 388.67 160.14 388.331 160.14Z" fill="black"/>
<path d="M464.325 148.297C464.325 148.297 471.008 139.624 475.978 146.795C480.948 153.969 473.921 175.153 461.754 169.982L464.325 148.297Z" fill="#150500"/>
<path d="M464.409 163.435C464.859 163.435 465.272 163.145 465.4 162.704C467.286 156.163 474.246 153.513 474.318 153.486C474.848 153.29 475.114 152.711 474.914 152.195C474.712 151.679 474.12 151.418 473.589 151.613C473.265 151.733 465.593 154.631 463.42 162.163C463.268 162.695 463.586 163.247 464.132 163.397C464.226 163.422 464.319 163.435 464.409 163.435Z" fill="black"/>
<path d="M471.437 160.14C471.627 160.14 471.82 160.088 471.993 159.981C472.47 159.681 472.607 159.063 472.301 158.597C472.249 158.521 471.018 156.692 468.441 155.569C467.925 155.342 467.314 155.569 467.083 156.074C466.852 156.578 467.083 157.17 467.602 157.395C469.595 158.263 470.563 159.667 470.573 159.681C470.767 159.979 471.099 160.14 471.437 160.14Z" fill="black"/>
<path d="M446.337 187.952V209.021C446.337 209.021 439.881 219.75 431.152 220.482C422.432 221.223 414.683 211.244 414.683 211.244V189.434L446.337 187.952Z" fill="#F0997A"/>
<path d="M446.337 187.952V197.301C440.479 203.628 430.081 205.869 414.685 203.658L414.683 189.434L446.337 187.952Z" fill="#150500"/>
<path d="M469.156 133.842C468.754 142.03 467.953 152.268 466.349 160.456C465.947 162.497 465.496 164.419 464.992 166.142C460.436 181.666 449.044 208.29 417.148 197.2C403.06 192.305 396.531 177.032 393.621 161.499C391.647 150.948 391.348 140.289 391.493 132.673C391.647 124.896 396.006 117.79 402.958 113.956C421.784 103.566 441.65 107.44 454.729 112.334C463.808 115.727 469.618 124.405 469.156 133.842Z" fill="#F0997A"/>
<path d="M415.839 149.533C415.839 151.781 414.648 153.606 413.179 153.606C411.709 153.606 410.519 151.783 410.519 149.533C410.519 147.284 411.709 145.461 413.179 145.461C414.646 145.461 415.839 147.284 415.839 149.533Z" fill="black"/>
<path d="M448.682 149.533C448.682 151.781 447.491 153.606 446.021 153.606C444.552 153.606 443.361 151.783 443.361 149.533C443.361 147.284 444.552 145.461 446.021 145.461C447.491 145.461 448.682 147.284 448.682 149.533Z" fill="black"/>
<path d="M407.909 137.409C410.118 136.802 414.58 135.762 419.287 135.75C420.526 135.746 421.474 136.818 421.256 138.005L421.25 138.036C421.076 138.984 420.205 139.653 419.216 139.609C416.013 139.464 407.607 139.902 403.637 141.468C403.556 140.796 403.963 140.061 404.541 139.409C405.418 138.418 406.618 137.764 407.909 137.409Z" fill="black"/>
<path d="M450.885 137.493C448.674 136.886 444.214 135.846 439.507 135.834C438.268 135.83 437.32 136.902 437.538 138.089L437.544 138.12C437.718 139.068 438.589 139.738 439.576 139.693C442.78 139.548 451.186 139.986 455.156 141.552C455.236 140.88 454.829 140.145 454.251 139.491C453.376 138.5 452.174 137.846 450.885 137.493Z" fill="black"/>
<path d="M430.242 168.112C429.455 168.112 428.665 167.976 428.006 167.592C427.406 167.242 426.658 166.533 426.511 165.15C426.12 161.471 427.087 149.94 427.129 149.451C427.175 148.899 427.672 148.49 428.239 148.535C428.806 148.579 429.226 149.063 429.18 149.615C429.169 149.733 428.188 161.449 428.558 164.944C428.622 165.551 428.877 165.767 429.065 165.876C430.029 166.439 432.26 165.864 433.189 165.498C433.713 165.287 434.315 165.535 434.528 166.046C434.742 166.557 434.491 167.141 433.965 167.35C433.697 167.455 431.978 168.112 430.242 168.112Z" fill="#150500"/>
<path d="M417.184 174.432C417.962 178.239 420.545 185.243 429.248 185.243C437.973 185.243 440.421 178.843 441.261 174.432H417.184Z" fill="white"/>
<path d="M429.125 191.084C426.613 191.084 424.395 189.768 424.302 189.711C423.819 189.42 423.669 188.804 423.968 188.334C424.265 187.864 424.898 187.72 425.38 188.007C425.399 188.018 427.208 189.082 429.125 189.082C431.198 189.082 433.056 188.012 433.075 188.002C433.563 187.718 434.192 187.87 434.485 188.343C434.779 188.814 434.623 189.429 434.139 189.714C434.041 189.771 431.785 191.084 429.125 191.084Z" fill="black"/>
<path d="M473.298 132.212C472.967 133.125 472.05 133.708 470.823 134.057C470.913 136.264 470.674 138.919 470.45 141.464C469.181 155.931 465.433 158.47 464.585 154.893C464.028 152.518 464.061 138.894 464.33 134.451C461.393 134.264 458.883 133.787 458.883 133.787L455.436 119.742L454.229 133.612C449.059 135.364 436.995 132.558 436.995 132.558L432.948 118.715L430.446 132.035C422.691 135.712 412.997 133.264 412.997 133.264L410.77 118.897L405.628 133.264C405.628 133.264 389.084 139.041 388.904 133.264C388.794 129.901 391.324 120.433 393.461 113.099C395.791 105.1 401.188 98.3428 408.49 94.532C429.011 83.8084 450.714 89.5121 458.159 93.8409C473.945 103.014 473.298 132.212 473.298 132.212Z" fill="black"/>
<path d="M398.016 103.041C398.016 103.041 384.396 118.81 379.914 146.973C375.432 175.137 369.228 195.945 386.663 205.245C405.534 215.31 403.899 194.668 403.628 189.057C403.356 183.446 387.306 168.112 398.016 124.921C401.474 110.977 398.016 103.041 398.016 103.041Z" fill="black"/>
<path d="M394.833 161.24C394.833 161.24 394.833 161.255 394.833 161.274C394.84 161.483 394.853 162.603 394.935 164.355C394.977 165.442 395.045 166.764 395.148 168.267C395.79 177.755 397.685 194.143 403.255 199.826C405.455 202.074 409.694 203.201 414.684 203.658V196.202C409.425 193.774 405.323 189.781 402.145 184.868C400.18 180.727 396.795 174.246 395.21 164.053L394.833 161.24Z" fill="black"/>
<path d="M469.403 170.459C469.403 171.753 468.324 172.803 466.994 172.803C465.664 172.803 464.585 171.753 464.585 170.459C464.585 169.164 465.664 168.114 466.994 168.114C468.324 168.114 469.403 169.162 469.403 170.459Z" fill="white"/>
<path d="M518.495 347.11C511.672 366.125 481.112 364.741 446.307 354.346C446.257 354.332 446.206 354.314 446.156 354.301C446.046 354.271 445.942 354.235 445.832 354.203L441.043 352.717C440.383 352.508 439.719 352.294 439.058 352.074C435.307 350.851 431.529 349.53 427.735 348.128C415.299 343.529 402.767 338.079 390.949 332.268L391.031 332.068L394.59 323.07L395.805 320.007C395.805 320.007 460.33 326.85 492.773 320.248C493.323 320.136 493.859 320.025 494.387 319.905C494.259 319.205 494.218 318.489 494.016 317.821C476.827 260.855 495.625 249.933 501.918 241.988C501.918 241.984 531.377 311.212 518.495 347.11Z" fill="#190340"/>
<path d="M507.981 329.479C507.789 329.568 507.583 329.613 507.379 329.613C506.871 329.613 506.38 329.336 506.141 328.863C503.683 323.961 495.337 321.046 492.774 320.248C493.325 320.136 493.86 320.025 494.389 319.905C494.26 319.205 494.138 318.509 494.018 317.821C497.278 318.869 505.794 322.066 508.614 327.691C508.948 328.348 508.664 329.152 507.981 329.479Z" fill="#33CC33"/>
<path d="M417.606 327.091C404.438 327.091 393.744 326.354 392.812 326.288C392.054 326.234 391.486 325.593 391.541 324.855C391.596 324.118 392.254 323.57 393.014 323.618C393.5 323.652 441.901 326.984 460.985 319.45C461.687 319.173 462.491 319.502 462.777 320.187C463.061 320.873 462.724 321.653 462.019 321.932C451.454 326.102 432.868 327.091 417.606 327.091Z" fill="#33CC33"/>
<path d="M441.043 352.716C441.049 352.716 441.049 352.716 441.049 352.716C452.091 349.752 462.13 346.864 467.925 345.057C475.974 342.544 482.631 334.626 485.658 327.894C485.961 327.215 486.772 326.908 487.469 327.206C488.166 327.501 488.482 328.29 488.179 328.969C484.904 336.249 477.632 344.837 468.764 347.609C464.557 348.921 458.132 350.796 450.708 352.859C447.543 353.741 444.179 353.691 441.043 352.716Z" fill="#33CC33"/>
<path d="M470.809 343.508C371.089 376.2 340.411 354.805 340.411 354.805C333.699 295.71 358.438 242.568 358.438 242.568C365.747 254.299 374.011 274.775 374.011 274.775L376.195 320.073L376.029 321.332L375.951 321.925L375.538 325.023L375.529 325.086C375.74 325.13 375.954 325.175 376.171 325.22C406.335 331.415 461.5 324.493 461.5 324.493L470.809 343.508Z" fill="#190340"/>
<path d="M376.171 325.22C370.786 329.613 365.673 334.674 361.116 340.49C360.658 341.079 359.792 341.195 359.186 340.745C358.581 340.299 358.467 339.46 358.92 338.87C358.926 338.87 358.926 338.865 358.926 338.865C364.048 332.316 369.852 326.711 375.952 321.925L375.54 325.023L375.53 325.086C375.74 325.13 375.954 325.175 376.171 325.22Z" fill="#33CC33"/>
<path d="M461.5 324.493C461.5 324.493 472.54 300.081 489.325 302.254L494.386 319.905C485.199 323.703 483.854 339.038 470.81 343.508L461.5 324.493Z" fill="#F0997A"/>
<path d="M395.808 320.007C395.808 320.007 388.837 304.078 370.487 299.455C352.138 294.829 340.448 303.248 339.217 306.423C337.986 309.6 346.137 306.564 346.137 306.564C346.137 306.564 340.828 308.026 337.783 312.884C334.737 317.741 345.196 312.5 345.196 312.5C345.196 312.5 337.696 315.7 336.742 318.666C335.788 321.632 345.68 316.621 347.539 316.716C347.539 316.716 338.705 320.134 338.766 323.195C338.826 326.256 348.913 321.264 356.444 321.659C363.977 322.054 375.525 325.091 375.525 325.091C381.689 326.232 387.58 327.079 392.909 327.318L395.808 320.007Z" fill="#F0997A"/>
<path d="M572.991 72.3298C566.2 72.3298 560.674 66.951 560.674 60.34C560.674 53.7291 566.2 48.3503 572.991 48.3503C579.783 48.3503 585.308 53.7291 585.308 60.34C585.308 66.951 579.783 72.3298 572.991 72.3298ZM572.991 52.1129C568.329 52.1129 564.537 55.8041 564.537 60.3418C564.537 64.8795 568.329 68.5689 572.991 68.5689C577.653 68.5689 581.443 64.8777 581.443 60.3418C581.445 55.8041 577.653 52.1129 572.991 52.1129Z" fill="#190340"/>
<path d="M680.452 51.9611C673.66 51.9611 668.134 46.5823 668.134 39.9714C668.134 33.3604 673.66 27.9816 680.452 27.9816C687.243 27.9816 692.769 33.3604 692.769 39.9714C692.769 46.5823 687.243 51.9611 680.452 51.9611ZM680.452 31.7443C675.79 31.7443 671.998 35.4355 671.998 39.9731C671.998 44.5108 675.79 48.202 680.452 48.202C685.111 48.202 688.903 44.5108 688.903 39.9731C688.905 35.4337 685.113 31.7443 680.452 31.7443Z" fill="#3D0E9C"/>
<path d="M695.669 90.9212C694.603 90.9212 693.737 90.0801 693.737 89.0408V80.7476C693.737 79.7083 694.603 78.8672 695.669 78.8672C696.737 78.8672 697.601 79.7083 697.601 80.7476V89.0408C697.601 90.0783 696.737 90.9212 695.669 90.9212Z" fill="#190340"/>
<path d="M695.669 105.434C694.603 105.434 693.737 104.593 693.737 103.554V95.2604C693.737 94.2211 694.603 93.38 695.669 93.38C696.737 93.38 697.601 94.2211 697.601 95.2604V103.554C697.601 104.593 696.737 105.434 695.669 105.434Z" fill="#190340"/>
<path d="M707.628 94.0303H699.974C698.907 94.0303 698.042 93.1892 698.042 92.1499C698.042 91.1106 698.908 90.2695 699.974 90.2695H707.628C708.694 90.2695 709.56 91.1106 709.56 92.1499C709.56 93.1892 708.696 94.0303 707.628 94.0303Z" fill="#190340"/>
<path d="M691.363 94.0304H683.71C682.644 94.0304 681.778 93.1893 681.778 92.1499C681.778 91.1106 682.644 90.2695 683.71 90.2695H691.363C692.431 90.2695 693.295 91.1106 693.295 92.1499C693.295 93.1893 692.431 94.0304 691.363 94.0304Z" fill="#190340"/>
<path d="M630.611 40.6783C629.543 40.6783 628.679 39.8354 628.679 38.7979V30.5047C628.679 29.4654 629.545 28.6243 630.611 28.6243C631.677 28.6243 632.543 29.4654 632.543 30.5047V38.7979C632.543 39.8354 631.679 40.6783 630.611 40.6783Z" fill="#0C0021"/>
<path d="M630.611 55.1911C629.543 55.1911 628.679 54.35 628.679 53.3107V45.0175C628.679 43.9782 629.545 43.1371 630.611 43.1371C631.677 43.1371 632.543 43.9782 632.543 45.0175V53.3107C632.543 54.35 631.679 55.1911 630.611 55.1911Z" fill="#0C0021"/>
<path d="M642.57 43.7888H634.917C633.851 43.7888 632.985 42.9459 632.985 41.9084C632.985 40.8691 633.851 40.028 634.917 40.028H642.57C643.638 40.028 644.502 40.8691 644.502 41.9084C644.502 42.9459 643.638 43.7888 642.57 43.7888Z" fill="#0C0021"/>
<path d="M626.305 43.7889H618.652C617.584 43.7889 616.72 42.946 616.72 41.9085C616.72 40.8692 617.586 40.0281 618.652 40.0281H626.305C627.373 40.0281 628.237 40.8692 628.237 41.9085C628.239 42.946 627.373 43.7889 626.305 43.7889Z" fill="#0C0021"/>
<path d="M132.756 29.9193C132.756 23.3083 138.282 17.9296 145.073 17.9296C151.865 17.9296 157.39 23.3083 157.39 29.9193C157.39 36.5303 151.865 41.9091 145.073 41.9091C138.282 41.9073 132.756 36.5303 132.756 29.9193ZM136.621 29.9193C136.621 34.457 140.413 38.1464 145.073 38.1464C149.735 38.1464 153.525 34.4552 153.525 29.9193C153.525 25.3816 149.733 21.6904 145.073 21.6904C140.413 21.6904 136.621 25.3816 136.621 29.9193Z" fill="#190340"/>
<path d="M83.2944 75.6171C83.2944 69.0062 88.8201 63.6274 95.6117 63.6274C102.403 63.6274 107.929 69.0062 107.929 75.6171C107.929 82.2281 102.403 87.6069 95.6117 87.6069C88.8183 87.6069 83.2944 82.2281 83.2944 75.6171ZM87.158 75.6171C87.158 80.1548 90.9501 83.8442 95.6117 83.8442C100.273 83.8442 104.064 80.153 104.064 75.6171C104.064 71.0794 100.272 67.3882 95.6117 67.3882C90.9501 67.3882 87.158 71.0794 87.158 75.6171Z" fill="#3D0E9C"/>
<path d="M57.6857 92.4412C58.7534 92.4412 59.6175 91.6001 59.6175 90.5608V82.2676C59.6175 81.2283 58.7516 80.3872 57.6857 80.3872C56.6198 80.3872 55.7539 81.2283 55.7539 82.2676V90.5608C55.7539 91.6001 56.6198 92.4412 57.6857 92.4412Z" fill="#190340"/>
<path d="M57.6857 106.956C58.7534 106.956 59.6175 106.115 59.6175 105.075V96.7821C59.6175 95.7427 58.7516 94.9016 57.6857 94.9016C56.6198 94.9016 55.7539 95.7427 55.7539 96.7821V105.075C55.7539 106.113 56.6198 106.956 57.6857 106.956Z" fill="#190340"/>
<path d="M45.7257 95.5517H53.3795C54.4473 95.5517 55.3113 94.7088 55.3113 93.6712C55.3113 92.6319 54.4454 91.7908 53.3795 91.7908H45.7257C44.6599 91.7908 43.7939 92.6319 43.7939 93.6712C43.7939 94.7088 44.6599 95.5517 45.7257 95.5517Z" fill="#190340"/>
<path d="M61.9919 95.5517H69.6457C70.7134 95.5517 71.5775 94.7088 71.5775 93.6712C71.5775 92.6319 70.7115 91.7908 69.6457 91.7908H61.9919C60.9241 91.7908 60.0601 92.6319 60.0601 93.6712C60.0601 94.7088 60.926 95.5517 61.9919 95.5517Z" fill="#190340"/>
<path d="M102.205 28.6887C103.271 28.6887 104.137 27.8476 104.137 26.8083V18.5151C104.137 17.4758 103.271 16.6347 102.205 16.6347C101.139 16.6347 100.273 17.4758 100.273 18.5151V26.8083C100.273 27.8476 101.138 28.6887 102.205 28.6887Z" fill="#0C0021"/>
<path d="M102.205 43.2036C103.271 43.2036 104.137 42.3625 104.137 41.3231V33.03C104.137 31.9906 103.271 31.1495 102.205 31.1495C101.139 31.1495 100.273 31.9924 100.273 33.03V41.3231C100.273 42.3607 101.138 43.2036 102.205 43.2036Z" fill="#0C0021"/>
<path d="M90.2453 31.7994H97.8991C98.965 31.7994 99.8309 30.9583 99.8309 29.919C99.8309 28.8797 98.965 28.0386 97.8991 28.0386H90.2453C89.1776 28.0386 88.3135 28.8815 88.3135 29.919C88.3135 30.9565 89.1776 31.7994 90.2453 31.7994Z" fill="#0C0021"/>
<path d="M106.51 31.7996H114.164C115.232 31.7996 116.096 30.9585 116.096 29.9191C116.096 28.8798 115.23 28.0387 114.164 28.0387H106.51C105.443 28.0387 104.579 28.8816 104.579 29.9191C104.579 30.9567 105.443 31.7996 106.51 31.7996Z" fill="#0C0021"/>
<path d="M470.54 30.78C470.316 30.8033 470.085 30.7729 469.863 30.6818C467.518 29.7193 466.144 29.2693 466.13 29.2639C465.41 29.03 465.023 28.2746 465.262 27.5746C465.502 26.8745 466.278 26.4977 466.997 26.7299C467.056 26.7495 468.474 27.212 470.929 28.2192C471.626 28.5067 471.954 29.2889 471.659 29.9693C471.459 30.4354 471.021 30.73 470.54 30.78Z" fill="#33CC33"/>
<path d="M540.452 102.406C541.386 104.829 542.259 107.327 543.05 109.833C543.246 110.452 543.865 110.835 544.505 110.769C544.591 110.76 544.679 110.742 544.765 110.717C545.49 110.501 545.896 109.752 545.674 109.049C544.866 106.492 543.975 103.941 543.023 101.47C542.757 100.781 541.97 100.431 541.258 100.688C540.546 100.945 540.186 101.715 540.452 102.406Z" fill="#33CC33"/>
<path d="M545.188 117.398C545.818 119.907 546.384 122.489 546.878 125.075C547.01 125.764 547.665 126.232 548.369 126.159C548.404 126.155 548.441 126.15 548.476 126.144C549.221 126.009 549.712 125.312 549.575 124.587C549.074 121.953 548.494 119.321 547.854 116.764C547.674 116.048 546.931 115.608 546.195 115.783C545.46 115.958 545.01 116.681 545.188 117.398Z" fill="#33CC33"/>
<path d="M550.974 157.724C551.655 157.654 552.188 157.099 552.199 156.417C552.242 153.738 552.222 151.049 552.141 148.425C552.119 147.688 551.486 147.109 550.728 147.131C549.961 147.158 549.376 147.768 549.398 148.506C549.479 151.088 549.497 153.736 549.457 156.376C549.446 157.113 550.049 157.72 550.807 157.731C550.864 157.733 550.919 157.729 550.974 157.724Z" fill="#33CC33"/>
<path d="M549.312 131.336C548.56 131.43 548.03 132.1 548.129 132.832C548.29 134.039 548.437 135.259 548.567 136.457C548.717 137.839 548.851 139.252 548.963 140.652C549.022 141.388 549.682 141.936 550.438 141.879C550.451 141.877 550.462 141.877 550.475 141.875C551.211 141.8 551.756 141.166 551.699 140.443C551.583 139.02 551.449 137.584 551.297 136.177C551.165 134.957 551.014 133.716 550.851 132.487C550.756 131.768 550.086 131.255 549.349 131.332C549.336 131.334 549.323 131.334 549.312 131.336Z" fill="#33CC33"/>
<path d="M537.393 95.1501C537.64 95.6912 538.215 95.9912 538.789 95.9323C538.928 95.918 539.07 95.8823 539.205 95.8233C539.897 95.5215 540.207 94.7322 539.897 94.059C538.78 91.6267 537.569 89.2017 536.299 86.8534C535.947 86.1998 535.118 85.9497 534.446 86.2926C533.777 86.6355 533.518 87.4427 533.87 88.0963C535.114 90.3964 536.298 92.7679 537.393 95.1501Z" fill="#33CC33"/>
<path d="M477.149 34.0013C479.505 35.1728 481.883 36.4479 484.216 37.7925C484.48 37.9443 484.776 38.0015 485.058 37.9711C485.475 37.9283 485.865 37.7015 486.097 37.3229C486.482 36.6889 486.267 35.8693 485.616 35.4943C483.235 34.121 480.806 32.8192 478.401 31.6227C477.727 31.2887 476.9 31.5477 476.555 32.2048C476.208 32.8602 476.474 33.6638 477.149 34.0013Z" fill="#33CC33"/>
<path d="M497.594 46.5752C497.884 46.7913 498.235 46.877 498.57 46.8413C498.932 46.8038 499.279 46.627 499.517 46.3234C499.978 45.7377 499.862 44.8984 499.258 44.4519C497.086 42.8376 494.837 41.2661 492.573 39.7785C491.944 39.366 491.093 39.5267 490.669 40.1392C490.245 40.75 490.41 41.5804 491.04 41.9929C493.259 43.4501 495.465 44.993 497.594 46.5752Z" fill="#33CC33"/>
<path d="M520.645 68.4385C520.948 68.8082 521.412 68.9778 521.862 68.9314C522.113 68.9046 522.361 68.8117 522.573 68.6456C523.164 68.1849 523.261 67.3438 522.786 66.7688C521.082 64.6973 519.284 62.6454 517.442 60.6739C516.934 60.1275 516.066 60.0864 515.505 60.5828C514.943 61.0793 514.903 61.924 515.413 62.4686C517.215 64.4008 518.976 66.4098 520.645 68.4385Z" fill="#33CC33"/>
<path d="M509.808 56.8275C510.112 57.115 510.518 57.2383 510.91 57.199C511.219 57.1668 511.516 57.0347 511.749 56.8025C512.277 56.2739 512.264 55.4293 511.723 54.915C509.773 53.0667 507.729 51.2469 505.651 49.5022C505.077 49.0201 504.211 49.0844 503.717 49.6415C503.222 50.2005 503.286 51.0434 503.86 51.5237C505.895 53.2327 507.896 55.0167 509.808 56.8275Z" fill="#33CC33"/>
<path d="M529.897 81.2749C530.183 81.7303 530.703 81.9606 531.213 81.9071C531.409 81.8874 531.603 81.8249 531.783 81.7196C532.429 81.3356 532.634 80.5124 532.238 79.8838C530.815 77.614 529.297 75.3586 527.729 73.1799C527.294 72.5763 526.439 72.4299 525.817 72.8531C525.197 73.2764 525.047 74.1103 525.481 74.7139C527.017 76.8462 528.503 79.0534 529.897 81.2749Z" fill="#33CC33"/>
<path d="M470.512 21.6437L476.517 0L402.954 0.614299L470.512 21.6437Z" fill="#3D0E9C"/>
<path d="M402.954 0.612427L466.942 26.8688L467.111 26.9402L469.864 31.3779L470.512 21.6436L402.954 0.612427Z" fill="#190340"/>
<path d="M469.865 31.3778L463.9 30.4635L467.111 26.9401L469.865 31.3778Z" fill="#190340"/>
<path d="M459.061 23.6352L467.113 26.9388L450.53 45.127L402.954 0.614624L459.061 23.6352Z" fill="#3D0E9C"/>
<path d="M808.77 591.065V592.371C808.77 599.896 802.499 606 794.765 606H68.372C60.6356 606 54.3706 599.896 54.3706 592.371V591.065C54.3706 583.54 60.6356 577.436 68.372 577.436H794.765C802.501 577.438 808.77 583.54 808.77 591.065Z" fill="#0C0021"/>
<path d="M808.77 591.065V591.717H54.3706V591.065C54.3706 583.54 60.6356 577.436 68.372 577.436H794.765C802.501 577.438 808.77 583.54 808.77 591.065Z" fill="#190340"/>
<path d="M542.738 534.561H314.543C309.091 534.561 304.671 530.26 304.671 524.952V408.739C304.671 403.432 309.091 399.13 314.543 399.13H542.736C548.188 399.13 552.607 403.432 552.607 408.739V524.952C552.609 530.26 548.188 534.561 542.738 534.561Z" fill="#0C0021"/>
<path d="M447.841 534.408H409.441V577.018H447.841V534.408Z" fill="#000B29"/>
<path d="M477.548 577.017H378.503V573.768C378.503 567.215 383.961 561.9 390.694 561.9H465.355C472.088 561.9 477.546 567.213 477.546 573.768V577.017H477.548Z" fill="#18315B"/>
</svg>
