<svg width="179" height="179" viewBox="0 0 179 179" fill="none" xmlns="http://www.w3.org/2000/svg">
<circle cx="89.5" cy="89.5" r="87" fill="white" stroke="#0C0021" stroke-width="5"/>
<path d="M97.1991 116.279H88.5077V131.265H97.1991V116.279Z" fill="#33CC33"/>
<path d="M132.265 65.6279V131.265H123.422V114.33V65.6279H132.265Z" fill="#33CC33"/>
<path d="M114.732 114.33V131.264H106.04V105.04H114.732V114.33Z" fill="#33CC33"/>
<path d="M57.3385 86.1592C60.4839 86.1592 63.0328 88.7097 63.0328 91.8521C63.0328 94.999 60.4839 97.548 57.3385 97.548C54.193 97.548 51.6425 94.999 51.6425 91.8521C51.6425 88.7082 54.193 86.1592 57.3385 86.1592Z" fill="#33CC33"/>
<path d="M68.5773 117.778H62.8814C61.8339 117.778 60.9333 116.877 60.9333 115.828C60.9333 114.781 61.8339 113.88 62.8814 113.88H66.6277V106.539C66.6277 104.589 65.7286 102.793 64.0817 101.444C62.2835 99.9455 59.8844 99.1963 57.3384 99.1963C52.2434 99.1963 47.8961 102.493 47.8961 106.539V113.88H51.6424C52.6914 113.88 53.5921 114.781 53.5921 115.828C53.5921 116.877 52.6914 117.778 51.6424 117.778H45.9481C44.8991 117.778 44 116.877 44 115.828V106.539C44 100.394 49.8442 95.45 57.187 95.45C60.6336 95.45 63.9304 96.4989 66.3295 98.5969C68.8755 100.695 70.374 103.543 70.374 106.541V115.828C70.374 116.877 69.4749 117.778 68.5773 117.778Z" fill="#0C0021"/>
<path d="M51.6425 132.763C50.595 132.763 49.6944 131.863 49.6944 130.814V112.533C49.6944 111.484 50.595 110.584 51.6425 110.584C52.6914 110.584 53.5921 111.484 53.5921 112.533V130.965C53.5921 131.863 52.6914 132.763 51.6425 132.763Z" fill="#0C0021"/>
<path d="M62.8814 132.763C61.8339 132.763 60.9333 131.863 60.9333 130.814V112.533C60.9333 111.484 61.8339 110.584 62.8814 110.584C63.9304 110.584 64.831 111.484 64.831 112.533V130.965C64.831 131.863 63.9304 132.763 62.8814 132.763Z" fill="#0C0021"/>
<path d="M57.3384 132.763C56.2894 132.763 55.3888 131.863 55.3888 130.814V121.524C55.3888 120.475 56.2894 119.575 57.3384 119.575C58.3859 119.575 59.2865 120.475 59.2865 121.524V130.814C59.1351 131.863 58.236 132.763 57.3384 132.763Z" fill="#0C0021"/>
<path d="M57.3385 99.3446C53.1411 99.3446 49.8458 96.0494 49.8458 91.852C49.8458 87.6561 53.1411 84.3594 57.3385 84.3594C61.5343 84.3594 64.8311 87.6561 64.8311 91.852C64.8311 96.0494 61.383 99.3446 57.3385 99.3446ZM57.3385 88.1057C55.2405 88.1057 53.5921 89.7556 53.5921 91.852C53.5921 93.9499 55.2405 95.5983 57.3385 95.5983C59.4349 95.5983 61.0848 93.9499 61.0848 91.852C61.0848 89.7556 59.2865 88.1057 57.3385 88.1057Z" fill="#0C0021"/>
<path d="M88.5078 133.062H79.8163C78.7674 133.062 77.8667 132.162 77.8667 131.114V105.041C77.8667 103.992 78.7674 103.091 79.8163 103.091H88.5078C89.5567 103.091 90.4558 103.992 90.4558 105.041V116.28C90.4558 117.327 89.5567 118.228 88.5078 118.228C87.4588 118.228 86.5597 117.327 86.5597 116.28V106.837H81.613V129.315H88.5078C89.5567 129.315 90.4558 130.216 90.4558 131.265C90.306 132.162 89.5567 133.062 88.5078 133.062Z" fill="#0C0021"/>
<path d="M97.1977 133.061H88.5062C87.4572 133.061 86.5581 132.162 86.5581 131.113V116.128C86.5581 115.079 87.4572 114.18 88.5062 114.18H97.1977C98.2467 114.18 99.1458 115.079 99.1458 116.128C99.1458 117.177 98.2467 118.076 97.1977 118.076H90.3044V129.315H97.1977C98.2467 129.315 99.1458 130.216 99.1458 131.265C99.1458 132.162 98.2482 133.061 97.1977 133.061Z" fill="#0C0021"/>
<path d="M106.04 133.061H97.3475C96.3 133.061 95.3994 132.162 95.3994 131.113V90.0553C95.3994 89.0063 96.3 88.1057 97.3475 88.1057H106.04C107.088 88.1057 107.989 89.0063 107.989 90.0553V105.041C107.989 106.088 107.088 106.989 106.04 106.989C104.991 106.989 104.091 106.088 104.091 105.041V91.852H99.1457V129.315H106.04C107.088 129.315 107.989 130.216 107.989 131.265C107.837 132.162 106.938 133.061 106.04 133.061Z" fill="#0C0021"/>
<path d="M114.732 133.062H106.04C104.991 133.062 104.091 132.162 104.091 131.114V105.041C104.091 103.992 104.991 103.091 106.04 103.091H114.732C115.781 103.091 116.68 103.992 116.68 105.041V114.33C116.68 115.379 115.781 116.28 114.732 116.28C113.683 116.28 112.784 115.379 112.784 114.33V106.837H107.837V129.315H114.732C115.781 129.315 116.68 130.216 116.68 131.265C116.53 132.162 115.781 133.062 114.732 133.062Z" fill="#0C0021"/>
<path d="M123.422 133.061H114.73C113.681 133.061 112.782 132.162 112.782 131.113V114.33C112.782 113.282 113.681 112.382 114.73 112.382H123.422C124.471 112.382 125.37 113.282 125.37 114.33C125.37 115.379 124.471 116.279 123.422 116.279H116.529V129.315H123.422C124.471 129.315 125.37 130.216 125.37 131.265C125.37 132.162 124.472 133.061 123.422 133.061Z" fill="#0C0021"/>
<path d="M132.265 133.062H123.572C122.524 133.062 121.624 132.163 121.624 131.114V65.628C121.624 64.579 122.524 63.6799 123.572 63.6799H132.265C133.312 63.6799 134.213 64.579 134.213 65.628V131.263C134.061 132.163 133.162 133.062 132.265 133.062ZM125.37 129.315H130.315V67.5761H125.37V129.315Z" fill="#0C0021"/>
<path d="M64.831 69.3742C61.6826 69.3742 59.1351 66.8267 59.1351 63.6798C59.1351 60.5329 61.6826 57.9854 64.831 57.9854C67.9779 57.9854 70.5254 60.5329 70.5254 63.6798C70.5254 66.8267 67.8281 69.3742 64.831 69.3742ZM64.831 61.8815C63.782 61.8815 62.8814 62.7806 62.8814 63.8296C62.8814 64.8786 63.782 65.7777 64.831 65.7777C65.8785 65.7777 66.7791 64.8786 66.7791 63.8296C66.7791 62.7821 65.7286 61.8815 64.831 61.8815Z" fill="#0C0021"/>
<path d="M85.3593 80.613C82.2124 80.613 79.6649 78.0655 79.6649 74.9186C79.6649 71.7717 82.2124 69.374 85.3593 69.374C88.5077 69.374 91.0552 71.9215 91.0552 75.0684C91.0552 78.2153 88.5077 80.613 85.3593 80.613ZM85.3593 73.1203C84.3118 73.1203 83.4112 74.0194 83.4112 75.0684C83.4112 76.1174 84.3118 76.8667 85.3593 76.8667C86.4083 76.8667 87.3089 75.9676 87.3089 74.9186C87.3089 73.8696 86.4083 73.1203 85.3593 73.1203Z" fill="#0C0021"/>
<path d="M100.345 65.6279C97.1976 65.6279 94.6501 63.0804 94.6501 59.9335C94.6501 56.7866 97.1976 54.3889 100.345 54.3889C103.493 54.3889 106.04 56.9364 106.04 60.0833C106.04 63.2302 103.493 65.6279 100.345 65.6279ZM100.345 58.1352C99.2971 58.1352 98.3965 59.0343 98.3965 60.0833C98.3965 61.1323 99.2971 62.0314 100.345 62.0314C101.393 62.0314 102.294 61.1323 102.294 60.0833C102.294 59.0358 101.393 58.1352 100.345 58.1352Z" fill="#0C0021"/>
<path d="M111.584 82.5611C108.437 82.5611 105.889 80.0136 105.889 76.8667C105.889 73.7198 108.437 71.1724 111.584 71.1724C114.732 71.1724 117.279 73.7198 117.279 76.8667C117.279 80.0136 114.732 82.5611 111.584 82.5611ZM111.584 75.0685C110.536 75.0685 109.635 75.9676 109.635 77.0166C109.635 78.0656 110.536 78.9647 111.584 78.9647C112.633 78.9647 113.533 78.0656 113.533 77.0166C113.533 75.9676 112.633 75.0685 111.584 75.0685Z" fill="#0C0021"/>
<path d="M81.613 75.0686C81.3148 75.0686 81.0151 74.9187 80.7139 74.7689L67.5268 67.2763C66.6262 66.8267 66.328 65.6279 66.7776 64.7288C67.2271 63.8296 68.426 63.5299 69.3251 63.9795L82.5121 71.4721C83.4112 71.9217 83.7109 73.1205 83.2614 74.0196C82.9617 74.619 82.2124 75.0686 81.613 75.0686Z" fill="#0C0021"/>
<path d="M89.1056 75.0682C88.6561 75.0682 88.2065 74.9184 87.7585 74.4688C87.0092 73.7196 87.0092 72.5208 87.7585 71.7715L97.1992 62.3307C97.9484 61.5815 99.1472 61.5815 99.8965 62.3307C100.646 63.08 100.646 64.2789 99.8965 65.0281L90.4558 74.4688C90.0063 74.77 89.5567 75.0682 89.1056 75.0682Z" fill="#0C0021"/>
<path d="M109.787 75.0684C109.187 75.0684 108.738 74.7687 108.288 74.3192L100.796 64.8785C100.196 64.1292 100.345 62.9304 101.094 62.1812C101.843 61.5817 103.043 61.7316 103.793 62.4808L111.285 71.9216C111.883 72.6708 111.735 73.8696 110.986 74.6189C110.536 74.9201 110.085 75.0684 109.787 75.0684Z" fill="#0C0021"/>
<path d="M70.374 46.8962H46.0995C45.0505 46.8962 44.1498 45.9971 44.1498 44.9481C44.1498 43.8991 45.0505 43 46.0995 43H70.374C71.423 43 72.3237 43.8991 72.3237 44.9481C72.3237 45.9971 71.423 46.8962 70.374 46.8962Z" fill="#0C0021"/>
<path d="M70.374 54.3886H55.3887C54.3413 54.3886 53.4407 53.4895 53.4407 52.4405C53.4407 51.3916 54.3413 50.4924 55.3887 50.4924H70.374C71.423 50.4924 72.3236 51.3916 72.3236 52.4405C72.3236 53.4895 71.423 54.3886 70.374 54.3886Z" fill="#0C0021"/>
</svg>
