<svg width="193" height="36" viewBox="0 0 193 36" fill="none" xmlns="http://www.w3.org/2000/svg">
<path d="M36.5625 15.454V20.8433H166.907C167.827 23.8176 170.297 26.2325 174.335 26.2325C184.775 26.2325 184.775 10.0623 174.335 10.0623C170.297 10.0623 167.827 12.4771 166.907 15.454H36.5625Z" fill="#33CC33"/>
<path d="M0.480103 15.454V20.8433H82.3387C83.2588 23.8176 85.7288 26.2325 89.7667 26.2325C100.207 26.2325 100.207 10.0623 89.7667 10.0623C85.7288 10.0623 83.2588 12.4771 82.3387 15.454H0.480103Z" fill="#33CC33"/>
<path d="M89.2629 34.668C98.4826 34.668 105.957 27.2054 105.957 17.9999C105.957 8.79435 98.4826 1.33179 89.2629 1.33179C80.0432 1.33179 72.5692 8.79435 72.5692 17.9999C72.5692 27.2054 80.0432 34.668 89.2629 34.668Z" stroke="#0C0021" stroke-width="2.66611" stroke-miterlimit="2.61313"/>
<path d="M174.972 34.668C184.192 34.668 191.666 27.2054 191.666 17.9999C191.666 8.79435 184.192 1.33179 174.972 1.33179C165.753 1.33179 158.279 8.79435 158.279 17.9999C158.279 27.2054 165.753 34.668 174.972 34.668Z" stroke="#0C0021" stroke-width="2.66611" stroke-miterlimit="2.61313"/>
</svg>
