<svg width="192" height="626" viewBox="0 0 192 626" fill="none" xmlns="http://www.w3.org/2000/svg">
<path d="M170.189 37.8639V0L161.683 7.77519V41.1689L319.856 181.02H302.015L147.945 48.9441V24.5104H23.9451C22.606 20.1368 18.6924 16.5031 12.2497 16.5031C-4.08227 16.5031 -4.08227 39.6527 12.2497 39.6527L23.7323 32.2848H48.7421V54.5216H142.012L296.082 186.599C296.082 203.607 292.593 352.381 178.93 490.91H167.956C228.648 422.179 258.06 346.55 272.073 294.497C287.767 236.359 288.172 194.16 288.172 193.733L288.193 192.042L134.483 60.0228H25.8805C24.1792 56.291 20.4569 53.4341 14.7165 53.4341C-1.61555 53.4341 -1.61555 76.5836 14.7165 76.5836C21.5637 76.5836 25.54 72.5216 26.6247 67.798H131.103L279.622 195.366C279.217 207.747 275.028 286.915 233.049 376.327L229.307 384.101C211.678 420.003 187.86 457.266 155.708 492.31L149.837 498.685H216.037V518.958L151.411 520.203L150.177 521.544C125.062 548.756 90.145 571.925 62.777 587.708H62.7554L56.4391 580.226C68.199 573.015 103.798 550.719 123.278 534.274C123.703 534.314 124.15 534.334 124.596 534.334C140.928 534.334 140.928 511.183 124.596 511.183C112.496 511.183 109.349 523.914 115.198 530.486C91.9108 549.417 48.4232 575.775 47.933 576.065L44.1276 578.379L55.5037 591.83C45.8064 597.253 37.3851 601.589 31.1982 604.658C29.3679 603.533 27.0726 602.869 24.2861 602.869C7.95408 602.869 7.95408 626.001 24.2861 626.001C34.0465 626.001 37.9809 617.74 36.0676 611.074C60.9909 598.652 118.111 567.648 155.431 527.901L224.544 526.559V498.686H356.114C357.54 502.923 361.41 506.383 367.726 506.383C384.059 506.383 384.059 483.233 367.726 483.233C361.431 483.233 357.562 486.675 356.137 490.911H331.809V431.005H446.813C448.599 434.503 452.236 437.148 457.766 437.148C474.077 437.148 474.077 413.997 457.766 413.997C450.706 413.997 446.708 418.313 445.751 423.23H277.369C282.472 414.542 287.171 405.911 291.51 397.378H351.267C352.798 401.459 356.626 404.745 362.771 404.745C379.104 404.745 379.104 381.595 362.771 381.595C356.305 381.595 352.416 385.23 351.054 389.603H295.38C300.868 378.331 305.717 367.271 309.991 356.542H398.328C399.985 360.331 403.73 363.286 409.555 363.286C425.888 363.286 425.888 340.136 409.555 340.136C402.793 340.136 398.837 344.121 397.668 348.767H313.031C321.601 326.297 327.682 305.46 332.02 287.44C346.312 227.943 345.059 185.22 345.059 184.791L344.929 181.021H332.105L170.189 37.8647L170.189 37.8639ZM139.439 46.746H57.2478V32.2844H139.439V46.746ZM323.302 431.004V490.91H229.116C246.043 471.162 260.441 450.985 272.69 431.004H323.302ZM336.573 188.794C336.403 214.258 330.425 363.634 218.249 490.91H189.54C250.426 414.929 278.474 337.083 291.277 284.544C303.165 235.873 304.504 200.34 304.567 188.794H336.573Z" fill="#190340" fill-opacity="0.2"/>
</svg>
