<svg width="50" height="50" viewBox="0 0 50 50" fill="none" xmlns="http://www.w3.org/2000/svg">
<path d="M43.7498 4.1665H6.25019C4.18806 4.1665 2.5 5.85457 2.5 7.91669V45.4169C2.5 47.4779 4.18806 49.1665 6.25019 49.1665H43.7498C45.8119 49.1665 47.5 47.4779 47.5 45.4169V7.91669C47.5 5.85457 45.8119 4.1665 43.7498 4.1665ZM43.7498 45.4169H6.25019V7.91669H43.7498V45.4169Z" fill="white"/>
<path d="M17.5 23.3335H14.1667V38.3335H17.5V23.3335Z" fill="white"/>
<path d="M15.4167 20.8335C17.0275 20.8335 18.3333 19.7142 18.3333 18.3335C18.3333 16.9528 17.0275 15.8335 15.4167 15.8335C13.8058 15.8335 12.5 16.9528 12.5 18.3335C12.5 19.7142 13.8058 20.8335 15.4167 20.8335Z" fill="white"/>
<path d="M28.3336 23.3335C26.9606 23.3335 25.6893 23.7301 24.5835 24.3735V23.4893H20.8333V38.3335H24.5835V30.8332C24.5835 28.7621 26.2625 27.0836 28.3336 27.0836C30.4047 27.0836 32.0832 28.7621 32.0832 30.8332V38.3335H35.8333V30.8332C35.8333 26.6916 32.4753 23.3335 28.3336 23.3335Z" fill="white"/>
</svg>
