<svg width="152" height="173" viewBox="0 0 152 173" fill="none" xmlns="http://www.w3.org/2000/svg">
<path fill-rule="evenodd" clip-rule="evenodd" d="M73.8198 87.5455L75.1424 85.5369L77.6834 88.4291L73.8198 87.5455Z" fill="white"/>
<path fill-rule="evenodd" clip-rule="evenodd" d="M84.4007 48.6298L88.846 49.5024L98.6861 46.2205H109.876L118.756 50.7921L122.855 61.0986L115.897 52.6251L109.075 50.0183L104.042 49.9634L93.0883 56.1868L85.8605 51.6592L70.6202 51.5988L63.3924 56.1265L52.4383 49.903L47.4057 49.9579L40.5841 52.5647L33.6252 61.0383L37.7248 50.7317L46.6045 46.1602H57.7946L67.6347 49.442L72.08 48.5694L84.3952 48.6298H84.4007ZM74.7143 74.451C75.2741 73.6553 75.8997 73.0571 76.668 72.9418H79.8182C80.5865 73.0571 81.2066 73.6553 81.7719 74.451C81.5304 73.4467 80.9981 72.3546 79.9224 71.5204H76.5637C75.4936 72.3546 74.9557 73.4467 74.7143 74.451ZM73.8307 79.6812C74.5332 78.8854 75.3125 78.2872 76.2729 78.1719H80.2078C81.1682 78.2872 81.9475 78.8854 82.65 79.6812C82.3481 78.6768 81.6841 77.5847 80.3395 76.7505H76.1412C74.8021 77.5847 74.1325 78.6768 73.8307 79.6812ZM72.6508 84.0881C73.5398 83.2923 74.5277 82.6941 75.746 82.5789H80.7347C81.953 82.6941 82.9409 83.2923 83.8299 84.0881C83.4458 83.0838 82.6006 81.9916 80.9048 81.1574H75.5814C73.8801 81.9916 73.0404 83.0838 72.6563 84.0881H72.6508ZM71.0428 89.3182C72.1898 88.5224 73.4575 87.9242 75.0271 87.809H81.4481C83.0177 87.9242 84.2854 88.5224 85.4324 89.3182C84.9385 88.3139 83.8519 87.2217 81.6621 86.3876H74.8076C72.6178 87.2217 71.5312 88.3139 71.0373 89.3182H71.0428ZM57.8715 95.5746C54.4304 94.6141 55.0396 101.765 53.5908 104.921C55.0177 101.803 55.6543 96.6612 57.8715 95.5746ZM98.3184 74.934L93.8182 63.6725L100.991 72.9638L96.8037 84.9716L95.728 89.5981L97.5006 95.3331L96.4195 102.577L107.396 129.699L96.2164 123.415L92.073 117.829L90.2729 108.757L97.3854 118.284L92.2651 101.502L87.4905 106.276L83.1055 135.193H79.8676L86.3489 92.9897L89.3509 97.885L94.12 93.1159L92.5449 87.2217L91.1455 78.1774L94.8774 71.8278L97.6708 74.1657L93.4944 78.9567L93.6151 82.8094L95.4152 81.0148L98.3129 74.9395L98.3184 74.934ZM58.3105 74.934L62.8107 63.6725L55.6378 72.9638L59.8252 84.9716L60.9009 89.5981L59.1282 95.3331L60.2094 102.577L49.2333 129.699L60.4124 123.415L64.5559 117.829L66.356 108.757L59.2435 118.284L64.3638 101.502L69.1384 106.276L73.5234 135.193H76.7613L70.2799 92.9897L67.278 97.885L62.5089 93.1159L64.0839 87.2217L65.4834 78.1774L61.7515 71.8278L58.9581 74.1657L63.1345 78.9567L63.0138 82.8094L61.2137 81.0148L58.316 74.9395L58.3105 74.934ZM128.574 67.8105L127.356 57.8442L131.241 68.6557L130.176 79.083L117.033 94.1532L104.317 106.869L112.34 92.4025L125.16 79.8513L128.574 67.8105ZM27.9177 67.8105L29.136 57.8442L25.2505 68.6557L26.3152 79.083L39.459 94.1532L52.1749 106.869L44.1513 92.4025L31.3312 79.8513L27.9177 67.8105ZM100.387 95.5746C103.828 94.6141 103.219 101.765 104.668 104.921C103.241 101.803 102.605 96.6612 100.387 95.5746Z" fill="url(#paint0_linear_584_40)"/>
<path fill-rule="evenodd" clip-rule="evenodd" d="M1.73467 22.4957C27.8413 22.4957 48.8221 0.966064 74.9288 0.966064C101.31 7.90845 122.905 20.1139 151.493 24.1147C121.588 20.3718 102.073 14.2197 75.3843 8.08406C55.0181 8.08406 34.2404 32.6705 13.8742 32.6705C1.47673 120.968 57.6963 161.914 76.5258 167.106C88.6873 167.803 113.488 156.689 126.291 138.798C121.802 151.179 101.776 166.502 74.9233 173C50.7868 166.343 -11.0909 133.909 1.72918 22.5012L1.73467 22.4957Z" fill="#1D0449"/>
<path fill-rule="evenodd" clip-rule="evenodd" d="M15.5207 34.0592C35.8869 34.0592 54.3432 10.0984 74.7093 10.0984C96.7493 14.5218 119.245 22.1227 140.829 23.363C137.641 26.9357 134.458 30.5084 131.269 34.0757C113.554 33.3952 94.2029 25.9863 75.6697 21.9471C58.4098 21.9471 37.9668 39.1905 20.7124 39.1905C12.9743 65.7198 15.4933 84.2749 19.8398 97.051C28.4506 128.256 52.8834 151.07 76.4545 158.045C89.9112 157.414 102.336 153.095 120.414 123.728L133.453 124.195C118.306 151.152 93.3687 163.55 76.1746 165.257C57.3397 160.065 5.5215 120.984 15.5262 34.0537L15.5207 34.0592Z" fill="#33CC33"/>
<defs>
<linearGradient id="paint0_linear_584_40" x1="58.4587" y1="69.3911" x2="116.939" y2="121.785" gradientUnits="userSpaceOnUse">
<stop stop-color="#1D0449"/>
<stop offset="0.6" stop-color="#28683E"/>
<stop offset="1" stop-color="#33CC33"/>
</linearGradient>
</defs>
</svg>
