<svg width="179" height="179" viewBox="0 0 179 179" fill="none" xmlns="http://www.w3.org/2000/svg">
<circle cx="89.5" cy="89.5" r="87" fill="white" stroke="#0C0021" stroke-width="5"/>
<path d="M126.356 77.2785C130.583 77.2785 134.01 74.0425 134.01 70.0508C134.01 66.059 130.583 62.823 126.356 62.823C122.129 62.823 118.702 66.059 118.702 70.0508C118.702 74.0425 122.129 77.2785 126.356 77.2785Z" fill="#33CC33"/>
<path d="M89.9227 64.7006C94.1498 64.7006 97.5765 61.4647 97.5765 57.4729C97.5765 53.4811 94.1498 50.2451 89.9227 50.2451C85.6956 50.2451 82.2689 53.4811 82.2689 57.4729C82.2689 61.4647 85.6956 64.7006 89.9227 64.7006Z" fill="#33CC33"/>
<path d="M53.6454 77.2785C57.8724 77.2785 61.2991 74.0425 61.2991 70.0508C61.2991 66.059 57.8724 62.823 53.6454 62.823C49.4183 62.823 45.9916 66.059 45.9916 70.0508C45.9916 74.0425 49.4183 77.2785 53.6454 77.2785Z" fill="#33CC33"/>
<path d="M97.8827 129.75C97.4235 129.75 97.1173 129.606 96.8112 129.461C95.8927 128.883 95.7412 127.727 96.352 127.004L110.588 108.212C110.588 108.067 110.743 108.067 110.743 107.923C111.814 106.911 113.345 106.332 114.876 106.332H120.693V96.7918C120.08 96.9364 119.468 97.081 118.703 97.081H109.057C107.987 97.081 107.067 96.2136 107.067 95.2017C107.067 94.1898 107.987 93.3225 109.057 93.3225H118.703C119.007 93.3225 119.313 93.178 119.621 93.0334L121.458 92.0215C122.069 91.7324 122.834 91.7324 123.448 92.0215C124.06 92.3106 124.366 92.8889 124.366 93.6116V107.778C124.366 108.79 123.448 109.657 122.376 109.657H114.723C114.263 109.657 113.804 109.802 113.498 110.091L99.415 128.739C99.1073 129.463 98.4965 129.75 97.8827 129.75Z" fill="#0C0021"/>
<path d="M103.24 134.81C102.934 134.81 102.475 134.665 102.169 134.521C101.25 133.943 101.099 132.786 101.71 132.063L114.876 114.139C115.18 113.705 115.794 113.416 116.406 113.416H128.192C130.335 113.416 132.019 111.826 132.019 109.802V88.1186C132.019 86.2394 130.335 84.6493 128.346 84.5047C128.346 84.5047 128.346 84.5047 128.192 84.5047C128.192 84.5047 128.192 84.5047 128.039 84.5047C126.967 84.5047 126.049 84.9384 125.283 85.6612C125.129 85.8057 124.977 85.9503 124.824 85.9503L118.546 89.5641C118.24 89.7087 117.936 89.8533 117.628 89.8533H107.219C106.147 89.8533 105.227 90.7206 105.227 91.7325C105.227 92.7444 106.147 93.6117 107.219 93.6117C108.289 93.6117 109.209 94.479 109.209 95.4909C109.209 96.5028 108.289 97.3701 107.219 97.3701C104.003 97.3701 101.4 94.9127 101.4 91.877C101.4 88.8414 104.003 86.3839 107.219 86.3839H117.169L122.831 83.2037C124.209 81.9027 126.047 81.0354 128.036 81.0354C128.189 81.0354 128.342 81.0354 128.495 81.0354C132.628 81.18 135.842 84.3602 135.842 88.2632V109.946C135.842 113.994 132.476 117.174 128.189 117.174H117.32L104.768 134.087C104.465 134.522 103.854 134.81 103.24 134.81Z" fill="#0C0021"/>
<path d="M126.356 79.1563C121.152 79.1563 116.711 75.1088 116.711 70.0494C116.711 64.9899 120.999 60.9424 126.356 60.9424C131.714 60.9424 136 64.9899 136 70.0494C136 75.1088 131.559 79.1563 126.356 79.1563ZM126.356 64.7008C123.14 64.7008 120.538 67.1583 120.538 70.1939C120.538 73.2296 123.14 75.687 126.356 75.687C129.571 75.687 132.173 73.2296 132.173 70.1939C132.173 67.1583 129.418 64.7008 126.356 64.7008Z" fill="#0C0021"/>
<path d="M81.9643 129.751C81.352 129.751 80.7382 129.462 80.4335 129.028L66.3506 110.38C66.0444 110.091 65.5852 109.947 65.126 109.947H57.4722C56.4007 109.947 55.4807 109.079 55.4807 108.067V93.9009C55.4807 93.1782 55.7868 92.5999 56.4007 92.3108C57.0114 92.0217 57.7768 92.0217 58.3906 92.3108L60.2275 93.3227C60.5337 93.4673 60.8383 93.6118 61.146 93.6118H70.7897C71.8612 93.6118 72.7813 94.4792 72.7813 95.4911C72.7813 96.5029 71.8612 97.3703 70.7897 97.3703H61.146C60.5352 97.3703 59.9214 97.2257 59.156 97.0812V106.477H64.9729C66.5036 106.477 68.0344 107.055 69.1059 108.067C69.1059 108.067 69.259 108.212 69.259 108.356L83.4966 127.149C84.1073 128.016 83.9557 129.028 83.0358 129.606C82.7296 129.608 82.2689 129.751 81.9643 129.751Z" fill="#0C0021"/>
<path d="M76.6067 134.81C75.9944 134.81 75.3805 134.521 75.0759 134.087L62.5237 117.03H51.6538C47.3677 117.03 44 113.849 44 109.802V88.1186C44 84.2156 47.2162 81.0354 51.3492 80.8909C51.5023 80.8909 51.6538 80.8909 51.8084 80.8909C53.7984 80.8909 55.6353 81.7582 57.0114 83.0592L62.6752 86.2394H72.6252C75.8413 86.2394 78.442 88.6968 78.442 91.7325C78.442 94.7682 75.8413 97.2256 72.6252 97.2256C71.5536 97.2256 70.6352 96.3583 70.6352 95.3464C70.6352 94.3345 71.5536 93.4672 72.6252 93.4672C73.6967 93.4672 74.6151 92.5998 74.6151 91.5879C74.6151 90.5761 73.6967 89.7087 72.6252 89.7087H62.216C61.9099 89.7087 61.6037 89.5642 61.2975 89.4196L55.0199 85.8057C54.8668 85.6612 54.7137 85.6612 54.5607 85.5166C53.7953 84.7939 52.8769 84.3602 51.8053 84.3602C51.8053 84.3602 51.8053 84.3602 51.6507 84.3602C51.6507 84.3602 51.6507 84.3602 51.4977 84.3602C49.3546 84.6493 47.8238 86.2394 47.8238 88.1186V109.802C47.8238 111.826 49.5092 113.416 51.6507 113.416H63.4375C64.0498 113.416 64.6621 113.705 64.9683 114.139L77.9797 131.919C78.592 132.786 78.439 133.798 77.5205 134.376C77.2174 134.667 76.9113 134.81 76.6067 134.81Z" fill="#0C0021"/>
<path d="M53.6453 79.1563C48.4408 79.1563 44 75.1088 44 70.0494C44 64.9899 48.2877 60.9424 53.6453 60.9424C59.003 60.9424 63.2891 64.9899 63.2891 70.0494C63.2891 75.1088 58.8484 79.1563 53.6453 79.1563ZM53.6453 64.7008C50.4292 64.7008 47.8269 67.1583 47.8269 70.1939C47.8269 73.2296 50.4292 75.687 53.6453 75.687C56.8599 75.687 59.4622 73.2296 59.4622 70.1939C59.4622 67.1583 56.7068 64.7008 53.6453 64.7008Z" fill="#0C0021"/>
<path d="M109.057 97.2257H70.7882C69.7182 97.2257 68.7983 96.3584 68.7983 95.3465C68.7983 94.3346 69.7182 93.4673 70.7882 93.4673H109.057C110.129 93.4673 111.049 94.3346 111.049 95.3465C111.049 96.3598 110.129 97.2257 109.057 97.2257Z" fill="#0C0021"/>
<path d="M89.9226 135.099C88.8526 135.099 87.9327 134.232 87.9327 133.22V95.3465C87.9327 94.3346 88.8526 93.4673 89.9226 93.4673C90.9942 93.4673 91.9142 94.3346 91.9142 95.3465V133.365C91.9142 134.232 90.9942 135.099 89.9226 135.099Z" fill="#0C0021"/>
<path d="M89.9227 66.4366C84.7196 66.4366 80.2789 62.3891 80.2789 57.3296C80.2789 52.2702 84.565 48.2227 89.9227 48.2227C95.2803 48.2227 99.568 52.2702 99.568 57.3296C99.568 62.3891 95.1272 66.4366 89.9227 66.4366ZM89.9227 51.9811C86.7081 51.9811 84.1058 54.4385 84.1058 57.4742C84.1058 60.5098 86.7081 62.9673 89.9227 62.9673C93.1388 62.9673 95.7411 60.5098 95.7411 57.4742C95.7411 54.4385 93.1388 51.9811 89.9227 51.9811Z" fill="#0C0021"/>
<path d="M105.23 89.998C104.16 89.998 103.24 89.1307 103.24 88.1188V82.6257C103.24 79.7346 101.864 77.1326 99.4134 75.1088C96.8111 72.9405 93.445 71.784 89.9227 71.784C82.5751 71.784 76.4521 76.6989 76.4521 82.6257C76.4521 83.6376 75.5336 84.5049 74.4621 84.5049C73.3906 84.5049 72.472 83.6376 72.472 82.6257C72.472 74.6751 80.1259 68.1702 89.7697 68.1702C94.3619 68.1702 98.648 69.6157 101.863 72.3623C105.229 75.1088 107.066 78.7227 107.066 82.6257V88.1188C107.222 89.1321 106.302 89.998 105.23 89.998Z" fill="#0C0021"/>
</svg>
