<svg width="375" height="626" viewBox="0 0 375 626" fill="none" xmlns="http://www.w3.org/2000/svg">
<path d="M75.189 37.8639V0L66.6833 7.77519V41.1689L224.856 181.02H207.015L52.9448 48.9441V24.5104H-71.0549C-72.394 20.1368 -76.3076 16.5031 -82.7503 16.5031C-99.0823 16.5031 -99.0823 39.6527 -82.7503 39.6527L-71.2677 32.2848H-46.2579V54.5216H47.0119L201.082 186.599C201.082 203.607 197.593 352.381 83.9296 490.91H72.9559C133.648 422.179 163.06 346.55 177.073 294.497C192.767 236.359 193.172 194.16 193.172 193.733L193.193 192.042L39.4832 60.0228H-69.1195C-70.8208 56.291 -74.5431 53.4341 -80.2835 53.4341C-96.6156 53.4341 -96.6156 76.5836 -80.2835 76.5836C-73.4363 76.5836 -69.46 72.5216 -68.3753 67.798H36.1031L184.622 195.366C184.217 207.747 180.028 286.915 138.049 376.327L134.307 384.101C116.678 420.003 92.8597 457.266 60.7076 492.31L54.8374 498.685H121.037V518.958L56.4111 520.203L55.1775 521.544C30.0625 548.756 -4.85497 571.925 -32.223 587.708H-32.2446L-38.5609 580.226C-26.801 573.015 8.79786 550.719 28.2781 534.274C28.703 534.314 29.1504 534.334 29.596 534.334C45.928 534.334 45.928 511.183 29.596 511.183C17.4961 511.183 14.3492 523.914 20.1977 530.486C-3.08921 549.417 -46.5768 575.775 -47.067 576.065L-50.8724 578.379L-39.4963 591.83C-49.1936 597.253 -57.6149 601.589 -63.8018 604.658C-65.6321 603.533 -67.9274 602.869 -70.7139 602.869C-87.0459 602.869 -87.0459 626.001 -70.7139 626.001C-60.9535 626.001 -57.0191 617.74 -58.9324 611.074C-34.0091 598.652 23.1105 567.648 60.4307 527.901L129.544 526.559V498.686H261.114C262.54 502.923 266.41 506.383 272.726 506.383C289.059 506.383 289.059 483.233 272.726 483.233C266.431 483.233 262.562 486.675 261.137 490.911H236.809V431.005H351.813C353.599 434.503 357.236 437.148 362.766 437.148C379.077 437.148 379.077 413.997 362.766 413.997C355.706 413.997 351.708 418.313 350.751 423.23H182.369C187.472 414.542 192.171 405.911 196.51 397.378H256.267C257.798 401.459 261.626 404.745 267.771 404.745C284.104 404.745 284.104 381.595 267.771 381.595C261.305 381.595 257.416 385.23 256.054 389.603H200.38C205.868 378.331 210.717 367.271 214.991 356.542H303.328C304.985 360.331 308.73 363.286 314.555 363.286C330.888 363.286 330.888 340.136 314.555 340.136C307.793 340.136 303.837 344.121 302.668 348.767H218.031C226.601 326.297 232.682 305.46 237.02 287.44C251.312 227.943 250.059 185.22 250.059 184.791L249.929 181.021H237.105L75.1894 37.8647L75.189 37.8639ZM44.4392 46.746H-37.7522V32.2844H44.4392V46.746ZM228.302 431.004V490.91H134.116C151.043 471.162 165.441 450.985 177.69 431.004H228.302ZM241.573 188.794C241.403 214.258 235.425 363.634 123.249 490.91H94.5403C155.426 414.929 183.474 337.083 196.277 284.544C208.165 235.873 209.504 200.34 209.567 188.794H241.573Z" fill="#190340" fill-opacity="0.2"/>
</svg>
