<svg width="50" height="50" viewBox="0 0 50 50" fill="none" xmlns="http://www.w3.org/2000/svg">
<path d="M34.0557 43.9512C32.528 43.9399 31.0071 43.7481 29.5244 43.3799C24.4043 42.1446 19.1318 39.0108 14.6807 34.5557C10.2295 30.1006 7.09179 24.8272 5.85644 19.7119C4.55566 14.3311 5.48339 9.72756 8.46581 6.74514L9.31738 5.89358C10.09 5.12251 11.137 4.68945 12.2285 4.68945C13.3201 4.68945 14.367 5.12251 15.1396 5.89358L20.0332 10.7862C20.8047 11.5585 21.2381 12.6056 21.2381 13.6973C21.2381 14.789 20.8047 15.8361 20.0332 16.6084L17.1426 19.4981C18.5283 21.9297 20.4131 24.3633 22.6406 26.5908C24.8682 28.8184 27.3037 30.7041 29.7344 32.0899L32.624 29.1992C33.0063 28.8169 33.4601 28.5135 33.9596 28.3066C34.4591 28.0996 34.9945 27.9931 35.5351 27.9931C36.0758 27.9931 36.6112 28.0996 37.1107 28.3066C37.6102 28.5135 38.064 28.8169 38.4463 29.1992L43.3389 34.0918C44.1106 34.8639 44.5441 35.9108 44.5441 37.0025C44.5441 38.0941 44.1106 39.141 43.3389 39.9131L42.4863 40.7647C40.3838 42.8711 37.4736 43.9512 34.0557 43.9512ZM12.2285 7.61721C12.0726 7.61644 11.9181 7.64679 11.774 7.70648C11.63 7.76618 11.4993 7.85402 11.3896 7.96486L10.5371 8.81643C8.3037 11.0498 7.65136 14.6758 8.70019 19.0205C9.81054 23.6231 12.6689 28.4053 16.748 32.4834C20.8271 36.5615 25.6084 39.417 30.2119 40.5313C34.5576 41.5801 38.1816 40.9278 40.415 38.6944L41.2666 37.8428C41.4891 37.6201 41.6141 37.3182 41.6141 37.0034C41.6141 36.6887 41.4891 36.3868 41.2666 36.1641L36.375 31.2715C36.1523 31.049 35.8504 30.924 35.5356 30.924C35.2209 30.924 34.919 31.049 34.6963 31.2715L31.0332 34.9346C30.8134 35.1545 30.5293 35.2988 30.2221 35.3465C29.9149 35.3943 29.6004 35.343 29.3242 35.2002C26.3213 33.6475 23.2939 31.3867 20.5693 28.6621C17.8447 25.9375 15.5889 22.9121 14.0322 19.9092C13.8893 19.6331 13.8379 19.3187 13.8854 19.0115C13.933 18.7043 14.0771 18.4201 14.2969 18.2002L17.9609 14.5371C18.1834 14.3145 18.3084 14.0126 18.3084 13.6978C18.3084 13.383 18.1834 13.0811 17.9609 12.8584L13.0684 7.96486C12.9583 7.85421 12.8275 7.7665 12.6833 7.70683C12.5391 7.64715 12.3845 7.61669 12.2285 7.61721Z" fill="white"/>
<path d="M35.6201 26.3408C35.2316 26.3408 34.859 26.1865 34.5843 25.9118C34.3096 25.6371 34.1553 25.2645 34.1553 24.876C34.1524 22.3062 33.1304 19.8424 31.3134 18.0252C29.4963 16.208 27.0327 15.1857 24.4629 15.1826C24.0744 15.1826 23.7018 15.0283 23.4271 14.7536C23.1524 14.4789 22.998 14.1063 22.998 13.7178C22.998 13.3293 23.1524 12.9567 23.4271 12.682C23.7018 12.4073 24.0744 12.2529 24.4629 12.2529C31.4229 12.2529 37.085 17.917 37.085 24.876C37.085 25.2645 36.9306 25.6371 36.6559 25.9118C36.3812 26.1865 36.0086 26.3408 35.6201 26.3408Z" fill="white"/>
<path d="M41.8115 26.3408C41.423 26.3408 41.0504 26.1865 40.7757 25.9118C40.501 25.6371 40.3467 25.2645 40.3467 24.876C40.3467 16.1172 33.2178 8.99121 24.4629 8.99121C24.0744 8.99121 23.7018 8.83688 23.4271 8.56217C23.1524 8.28746 22.998 7.91487 22.998 7.52637C22.998 7.13787 23.1524 6.76528 23.4271 6.49057C23.7018 6.21586 24.0744 6.06152 24.4629 6.06152C34.8369 6.06152 43.2764 14.502 43.2764 24.876C43.2764 25.2645 43.122 25.6371 42.8473 25.9118C42.5726 26.1865 42.2 26.3408 41.8115 26.3408Z" fill="white"/>
</svg>
