<svg width="50" height="50" viewBox="0 0 50 50" fill="none" xmlns="http://www.w3.org/2000/svg">
<path d="M44.0829 4.99984C45.0481 4.99984 45.8333 5.78506 45.8333 6.75023V44.9161C45.8333 45.8813 45.0481 46.6665 44.0829 46.6665H5.91706C4.95189 46.6665 4.16666 45.8813 4.16666 44.9161V6.75023C4.16666 5.78506 4.95189 4.99984 5.91706 4.99984H44.0829ZM44.0829 2.9165H5.91706C3.79974 2.9165 2.08333 4.63292 2.08333 6.75023V44.9161C2.08333 47.0334 3.79974 48.7498 5.91706 48.7498H44.0829C46.2002 48.7498 47.9167 47.0334 47.9167 44.9161V6.75023C47.9167 4.63292 46.2002 2.9165 44.0829 2.9165Z" fill="white"/>
<path d="M28.175 23.2824L40.5854 9.1665H37.6449L26.8641 21.4206L18.2597 9.1665H8.33333L21.3477 27.6985L8.33333 42.4998H11.2738L22.6516 29.5561L31.7403 42.4998H41.6667L28.175 23.2824ZM24.1462 27.8611L22.8256 26.0146L12.3342 11.3356H16.8514L25.3208 23.1864L26.6358 25.033L37.6435 40.4364H33.1263L24.1462 27.8611Z" fill="white"/>
</svg>
