<svg width="179" height="179" viewBox="0 0 179 179" fill="none" xmlns="http://www.w3.org/2000/svg">
<circle cx="89.5" cy="89.5" r="87" fill="white" stroke="#0C0021" stroke-width="5"/>
<path d="M128.818 73.8088C133.325 73.8088 136.979 70.1548 136.979 65.6474C136.979 61.14 133.325 57.4861 128.818 57.4861C124.31 57.4861 120.656 61.14 120.656 65.6474C120.656 70.1548 124.31 73.8088 128.818 73.8088Z" fill="#33CC33"/>
<path d="M79.8497 75.9291L94.0487 94.2122H89.9681H67.6076L53.242 73.8088L79.8497 75.9291Z" fill="#33CC33"/>
<path d="M98.4559 133.058C97.9662 133.058 97.6397 132.895 97.3133 132.732C96.3339 132.079 96.1724 130.773 96.8236 129.957L112.004 108.737C112.004 108.574 112.169 108.574 112.169 108.411C113.311 107.268 114.943 106.615 116.576 106.615H122.778V95.8425C122.125 96.0057 121.473 96.169 120.656 96.169H110.371C109.23 96.169 108.25 95.1896 108.25 94.047C108.25 92.9044 109.23 91.9251 110.371 91.9251H120.656C120.981 91.9251 121.308 91.7618 121.636 91.5986L123.594 90.456C124.246 90.1296 125.062 90.1296 125.716 90.456C126.369 90.7825 126.696 91.4354 126.696 92.2515V108.248C126.696 109.39 125.716 110.37 124.574 110.37H116.412C115.923 110.37 115.433 110.533 115.107 110.859L100.09 131.916C99.7617 132.733 99.1104 133.058 98.4559 133.058Z" fill="#0C0021"/>
<path d="M104.169 138.771C103.842 138.771 103.353 138.608 103.026 138.445C102.047 137.792 101.885 136.486 102.537 135.67L116.576 115.43C116.901 114.94 117.555 114.614 118.208 114.614H130.775C133.06 114.614 134.855 112.818 134.855 110.533V86.0489C134.855 83.9269 133.06 82.1314 130.94 81.9682C130.94 81.9682 130.94 81.9682 130.775 81.9682C130.775 81.9682 130.775 81.9682 130.612 81.9682C129.469 81.9682 128.49 82.4579 127.673 83.274C127.509 83.4373 127.347 83.6005 127.184 83.6005L120.49 87.6812C120.163 87.8444 119.839 88.0076 119.511 88.0076H108.411C107.269 88.0076 106.287 88.987 106.287 90.1296C106.287 91.2721 107.269 92.2515 108.411 92.2515C109.552 92.2515 110.533 93.2309 110.533 94.3735C110.533 95.5161 109.552 96.4954 108.411 96.4954C104.982 96.4954 102.207 93.7206 102.207 90.2928C102.207 86.865 104.982 84.0902 108.411 84.0902H119.021L125.059 80.4992C126.528 79.0301 128.488 78.0508 130.608 78.0508C130.772 78.0508 130.935 78.0508 131.098 78.0508C135.505 78.214 138.933 81.805 138.933 86.2121V110.696C138.933 115.267 135.344 118.858 130.772 118.858H119.182L105.798 137.955C105.475 138.446 104.823 138.771 104.169 138.771Z" fill="#0C0021"/>
<path d="M128.818 75.9291C123.268 75.9291 118.533 71.3588 118.533 65.6458C118.533 59.9329 123.105 55.3625 128.818 55.3625C134.531 55.3625 139.101 59.9329 139.101 65.6458C139.101 71.3588 134.366 75.9291 128.818 75.9291ZM128.818 59.6065C125.388 59.6065 122.613 62.3813 122.613 65.8091C122.613 69.2368 125.388 72.0117 128.818 72.0117C132.246 72.0117 135.02 69.2368 135.02 65.8091C135.02 62.3813 132.082 59.6065 128.818 59.6065Z" fill="#0C0021"/>
<path d="M110.371 96.3325H43.1236C41.981 96.3325 41 95.3532 41 94.2106C41 93.068 41.981 92.0886 43.1236 92.0886H110.371C111.514 92.0886 112.495 93.068 112.495 94.2106C112.495 95.3548 111.514 96.3325 110.371 96.3325Z" fill="#0C0021"/>
<path d="M53.242 139.098C52.1011 139.098 51.1201 138.119 51.1201 136.976V94.2106C51.1201 93.068 52.1011 92.0886 53.242 92.0886C54.3846 92.0886 55.3656 93.068 55.3656 94.2106V137.139C55.3656 138.119 54.3846 139.098 53.242 139.098Z" fill="#0C0021"/>
<path d="M89.9681 139.098C88.8271 139.098 87.8461 138.119 87.8461 136.976V94.2106C87.8461 93.068 88.8271 92.0886 89.9681 92.0886C91.1106 92.0886 92.0917 93.068 92.0917 94.2106V137.139C92.0917 138.119 91.1106 139.098 89.9681 139.098Z" fill="#0C0021"/>
<path d="M67.6077 96.3323C66.9547 96.3323 66.3002 96.0059 65.9754 95.5162L51.6097 74.9496C51.1201 74.2967 51.1201 73.4805 51.4466 72.8276C51.773 72.1747 52.5891 71.6851 53.4052 71.8483L80.0113 73.9702C80.6642 73.9702 81.1538 74.2967 81.4802 74.7864L95.6794 92.9045C96.3323 93.7207 96.1707 95.0265 95.3545 95.8426C94.5384 96.4955 93.231 96.3323 92.4149 95.5162L78.7054 77.8877L57.3211 76.2554L69.0733 93.0678C69.7263 94.0471 69.563 95.1897 68.5837 95.8426C68.2589 96.1707 67.9325 96.3323 67.6077 96.3323Z" fill="#0C0021"/>
<path d="M94.0487 69.7279C86.2138 69.7279 79.6848 63.3621 79.6848 55.364C79.6848 47.3659 86.0506 41 94.0487 41C102.047 41 108.414 47.3659 108.414 55.364C108.414 63.3621 101.885 69.7279 94.0487 69.7279ZM94.0487 45.2439C88.5006 45.2439 83.7655 49.8142 83.7655 55.5272C83.7655 61.2401 88.3358 65.8105 94.0487 65.8105C99.7617 65.8105 104.334 61.2401 104.334 55.5272C104.334 49.8142 99.5984 45.2439 94.0487 45.2439Z" fill="#0C0021"/>
<path d="M98.1294 61.5665C97.6397 61.5665 97.1501 61.4033 96.662 60.9136L92.5814 56.8329C92.2549 56.5065 91.9284 55.8536 91.9284 55.3639V49.1613C91.9284 48.0187 92.9094 47.0393 94.0503 47.0393C95.1929 47.0393 96.174 48.0187 96.174 49.1613V54.3845L99.6017 57.8123C100.418 58.6284 100.418 59.9342 99.6017 60.7504C99.1104 61.4017 98.6207 61.5665 98.1294 61.5665Z" fill="#0C0021"/>
</svg>
