<svg width="50" height="50" viewBox="0 0 50 50" fill="none" xmlns="http://www.w3.org/2000/svg">
<path d="M40.625 48.9582H8.74999C4.37499 48.9582 0.833328 45.4165 0.833328 41.0415V8.95817C0.833328 4.58317 4.37499 1.0415 8.74999 1.0415H40.625C45 1.0415 48.5417 4.58317 48.5417 8.95817V40.8332C48.75 45.4165 45.2083 48.9582 40.625 48.9582ZM8.74999 3.12484C5.41666 3.12484 2.91666 5.83317 2.91666 8.95817V40.8332C2.91666 44.1665 5.62499 46.6665 8.74999 46.6665H40.625C43.9583 46.6665 46.4583 43.9582 46.4583 40.8332V8.95817C46.4583 5.62484 43.75 3.12484 40.625 3.12484H8.74999Z" fill="white"/>
<path d="M24.7917 43.125C21.4583 43.125 18.125 42.2917 15.2083 40.4167L9.16666 42.2917C8.74999 42.5 8.33332 42.2917 8.12499 42.0833C7.91666 41.875 7.70832 41.4583 7.91666 41.0417L9.79166 35.2083C7.70832 32.2917 6.66666 28.75 6.66666 25C6.66666 15 14.7917 6.875 24.7917 6.875C34.7917 6.875 42.9167 15 42.9167 25C42.9167 35 34.7917 43.125 24.7917 43.125ZM15.4167 38.125C15.625 38.125 15.8333 38.125 16.0417 38.3333C18.75 40 21.6667 41.0417 24.7917 41.0417C33.5417 41.0417 40.8333 33.9583 40.8333 25C40.8333 16.0417 33.75 8.95833 24.7917 8.95833C16.0417 8.95833 8.74999 16.0417 8.74999 25C8.74999 28.3333 9.79166 31.6667 11.875 34.375C12.0833 34.5833 12.0833 35 12.0833 35.4167L10.4167 39.7917L15 38.3333C15.2083 38.125 15.2083 38.125 15.4167 38.125ZM30.4167 35.625C29.1667 35.625 27.5 35.2083 25 34.1667C20.625 32.2917 17.7083 28.5417 16.25 26.4583C15.2083 25.2083 13.75 22.9167 13.75 20.625C13.75 17.9167 15.2083 16.4583 15.8333 15.8333C16.4583 15.2083 17.2917 14.7917 18.3333 14.7917C18.5417 14.7917 18.75 14.7917 18.75 14.7917C19.7917 14.7917 20.4167 15 20.8333 16.25L21.25 17.0833C21.6667 18.125 22.2917 19.5833 22.5 20C22.7083 20.2083 22.9167 21.0417 22.5 21.875C22.2917 22.2917 22.0833 22.5 21.875 22.7083C21.6667 22.9167 21.6667 22.9167 21.4583 23.125C21.25 23.3333 21.25 23.3333 21.0417 23.5417C21.4583 24.1667 22.2917 25.4167 23.5417 26.6667C25.2083 28.125 26.4583 28.5417 27.0833 28.9583H27.2917C27.5 28.75 27.9167 28.125 28.3333 27.5L28.5417 27.2917C29.1667 26.4583 30 26.25 31.0417 26.4583C31.4583 26.6667 33.5417 27.7083 34.5833 28.125L34.7917 28.3333C35.2083 28.5417 35.625 28.75 35.8333 29.1667C36.25 29.7917 36.0417 31.25 35.625 32.5C35 33.9583 33.125 35.2083 31.4583 35.625C31.25 35.625 30.8333 35.625 30.4167 35.625ZM18.3333 16.875C17.9167 16.875 17.5 17.0833 17.2917 17.0833C16.875 17.7083 15.8333 18.5417 15.8333 20.625C15.8333 21.875 16.4583 23.5417 17.7083 25.2083L17.9167 25.4167C19.1667 27.2917 22.0833 30.8333 25.8333 32.5C28.75 33.75 30.2083 33.9583 31.25 33.75C32.2917 33.5417 33.5417 32.7083 33.75 32.0833C33.9583 31.4583 33.9583 30.8333 33.9583 30.625C33.9583 30.625 33.9583 30.625 33.75 30.625L33.5417 30.4167C31.875 29.5833 30.4167 28.9583 30.2083 28.75L30 28.9583C29.5833 29.5833 29.1667 30.2083 28.75 30.625C28.125 31.25 27.2917 31.4583 26.4583 31.0417C25.625 30.625 23.9583 30 22.0833 28.3333C20.625 27.0833 19.5833 25.4167 19.1667 24.5833C18.5417 23.5417 19.1667 22.5 19.375 22.2917C19.5833 22.0833 19.5833 21.875 19.7917 21.6667L20 21.4583C20.2083 21.25 20.2083 21.0417 20.4167 20.8333C20.4167 20.625 19.7917 18.9583 19.375 17.9167L18.9583 17.0833C18.9583 16.875 18.9583 16.6667 18.9583 16.6667C18.5417 16.875 18.5417 16.875 18.3333 16.875Z" fill="white"/>
</svg>
